<mxfile host="app.diagrams.net" agent="Mozilla/5.0 (Windows NT 10.0; Win64; x64) AppleWebKit/537.36 (KHTML, like Gecko) Chrome/128.0.0.0 Safari/537.36" version="24.7.10">
  <diagram name="Page-1" id="x9gn3O4CqB-TzNcqPIhI">
    <mxGraphModel dx="1323" dy="687" grid="0" gridSize="10" guides="1" tooltips="1" connect="1" arrows="0" fold="1" page="1" pageScale="1" pageWidth="1600" pageHeight="900" background="none" math="0" shadow="0">
      <root>
        <mxCell id="0" />
        <mxCell id="1" parent="0" />
        <mxCell id="O9PJK0Ftn6C582rbbvPH-98" value="" style="shape=mxgraph.arrows2.wedgeArrowDashed2;html=1;bendable=0;startWidth=74.28571428571429;stepSize=15;rounded=0;" parent="1" edge="1">
          <mxGeometry width="100" height="100" relative="1" as="geometry">
            <mxPoint x="1270" y="140" as="sourcePoint" />
            <mxPoint x="1580" y="90" as="targetPoint" />
          </mxGeometry>
        </mxCell>
        <mxCell id="_NxGIT1o2lES3_lHc9sc-5" value="" style="rounded=0;whiteSpace=wrap;html=1;fillColor=#FFE0E6;strokeColor=#FFB366;strokeWidth=1;opacity=40;" parent="1" vertex="1">
          <mxGeometry x="390" y="329" width="440" height="335" as="geometry" />
        </mxCell>
        <mxCell id="O9PJK0Ftn6C582rbbvPH-3" value="-" style="rounded=0;whiteSpace=wrap;html=1;fillColor=#99CCFF;strokeColor=#6c8ebf;opacity=30;" parent="1" vertex="1">
          <mxGeometry x="560" y="45" width="649" height="270" as="geometry" />
        </mxCell>
        <mxCell id="O9PJK0Ftn6C582rbbvPH-4" value="" style="rounded=0;whiteSpace=wrap;html=1;fillColor=#f5f5f5;fontColor=#333333;strokeColor=#666666;opacity=60;" parent="1" vertex="1">
          <mxGeometry x="844" y="330" width="366" height="345" as="geometry" />
        </mxCell>
        <mxCell id="O9PJK0Ftn6C582rbbvPH-11" value="" style="rounded=0;whiteSpace=wrap;html=1;fillColor=#928AFF;strokeColor=#9673a6;opacity=60;" parent="1" vertex="1">
          <mxGeometry x="917.5" y="500" width="228" height="110" as="geometry" />
        </mxCell>
        <mxCell id="O9PJK0Ftn6C582rbbvPH-12" value="" style="rounded=0;whiteSpace=wrap;html=1;fillColor=#F8A1A1;strokeColor=#b85450;opacity=30;" parent="1" vertex="1">
          <mxGeometry x="50" y="325" width="330" height="350" as="geometry" />
        </mxCell>
        <mxCell id="O9PJK0Ftn6C582rbbvPH-13" value="" style="rounded=0;whiteSpace=wrap;html=1;fillColor=#996F00;opacity=30;" parent="1" vertex="1">
          <mxGeometry x="220" y="680" width="560" height="150" as="geometry" />
        </mxCell>
        <mxCell id="O9PJK0Ftn6C582rbbvPH-14" value="" style="rounded=0;whiteSpace=wrap;html=1;fillColor=#fad7ac;strokeColor=#99CCFF;opacity=20;strokeWidth=5;" parent="1" vertex="1">
          <mxGeometry x="85" y="75" width="465" height="240" as="geometry" />
        </mxCell>
        <mxCell id="O9PJK0Ftn6C582rbbvPH-18" value="" style="rounded=0;whiteSpace=wrap;html=1;fillColor=#FFE0E6;strokeColor=#FFCCCC;" parent="1" vertex="1">
          <mxGeometry x="580" y="583.75" width="140" height="48.75" as="geometry" />
        </mxCell>
        <mxCell id="O9PJK0Ftn6C582rbbvPH-20" value="" style="rounded=0;whiteSpace=wrap;html=1;fillColor=#FAD5DB;strokeColor=#FFCCCC;textShadow=0;shadow=1;" parent="1" vertex="1">
          <mxGeometry x="740" y="575" width="60" height="57.5" as="geometry" />
        </mxCell>
        <mxCell id="O9PJK0Ftn6C582rbbvPH-21" value="" style="rounded=0;whiteSpace=wrap;html=1;fillColor=#FFE0E6;strokeColor=#FFCCCC;" parent="1" vertex="1">
          <mxGeometry x="520" y="525" width="40" height="108.75" as="geometry" />
        </mxCell>
        <mxCell id="O9PJK0Ftn6C582rbbvPH-22" value="" style="rounded=0;whiteSpace=wrap;html=1;fillColor=#FFE0E6;strokeColor=#FFCCCC;" parent="1" vertex="1">
          <mxGeometry x="592.5" y="515" width="105" height="40" as="geometry" />
        </mxCell>
        <mxCell id="O9PJK0Ftn6C582rbbvPH-23" value="" style="rounded=0;whiteSpace=wrap;html=1;fillColor=#FFE0E6;strokeColor=#FFCCCC;" parent="1" vertex="1">
          <mxGeometry x="520" y="465" width="150" height="40" as="geometry" />
        </mxCell>
        <mxCell id="O9PJK0Ftn6C582rbbvPH-196" value="" style="rounded=0;whiteSpace=wrap;html=1;fillColor=#ffff88;strokeColor=#6C727A;opacity=80;" parent="1" vertex="1">
          <mxGeometry x="985" y="456" width="85" height="35" as="geometry" />
        </mxCell>
        <mxCell id="O9PJK0Ftn6C582rbbvPH-24" value="" style="rounded=0;whiteSpace=wrap;html=1;fillColor=#FFE0E6;strokeColor=#FFCCCC;" parent="1" vertex="1">
          <mxGeometry x="710" y="505" width="100" height="50" as="geometry" />
        </mxCell>
        <mxCell id="O9PJK0Ftn6C582rbbvPH-27" value="" style="rounded=0;whiteSpace=wrap;html=1;fillColor=#FFE0E6;strokeColor=#FFCCCC;" parent="1" vertex="1">
          <mxGeometry x="410" y="585" width="90" height="50" as="geometry" />
        </mxCell>
        <mxCell id="O9PJK0Ftn6C582rbbvPH-28" value="" style="rounded=0;whiteSpace=wrap;html=1;fillColor=#FFE0E6;strokeColor=#FFCCCC;" parent="1" vertex="1">
          <mxGeometry x="410" y="445" width="40" height="120" as="geometry" />
        </mxCell>
        <mxCell id="O9PJK0Ftn6C582rbbvPH-29" value="" style="rounded=0;whiteSpace=wrap;html=1;fillColor=#FFE0E6;strokeColor=#FFCCCC;" parent="1" vertex="1">
          <mxGeometry x="680" y="425" width="100" height="50" as="geometry" />
        </mxCell>
        <mxCell id="O9PJK0Ftn6C582rbbvPH-30" value="" style="rounded=0;whiteSpace=wrap;html=1;fillColor=#FFE0E6;strokeColor=#99CCFF;opacity=90;" parent="1" vertex="1">
          <mxGeometry x="620" y="385" width="50" height="30" as="geometry" />
        </mxCell>
        <mxCell id="O9PJK0Ftn6C582rbbvPH-31" value="" style="rounded=0;whiteSpace=wrap;html=1;fillColor=#FFE0E6;strokeColor=#99CCFF;opacity=90;" parent="1" vertex="1">
          <mxGeometry x="560" y="385" width="50" height="30" as="geometry" />
        </mxCell>
        <mxCell id="O9PJK0Ftn6C582rbbvPH-32" value="" style="rounded=0;whiteSpace=wrap;fillColor=#FFE0E6;strokeColor=#99CCFF;strokeWidth=1;opacity=90;" parent="1" vertex="1">
          <mxGeometry x="500" y="385" width="50" height="30" as="geometry" />
        </mxCell>
        <mxCell id="O9PJK0Ftn6C582rbbvPH-33" value="" style="rounded=0;whiteSpace=wrap;html=1;fillColor=#FFE0E6;strokeColor=#FFCCCC;" parent="1" vertex="1">
          <mxGeometry x="560" y="425" width="20" height="30" as="geometry" />
        </mxCell>
        <mxCell id="O9PJK0Ftn6C582rbbvPH-34" value="" style="rounded=0;whiteSpace=wrap;html=1;fillColor=#FAD5DB;strokeColor=#FFCCCC;shadow=1;" parent="1" vertex="1">
          <mxGeometry x="400" y="365" width="50" height="50" as="geometry" />
        </mxCell>
        <mxCell id="O9PJK0Ftn6C582rbbvPH-36" value="" style="rounded=0;whiteSpace=wrap;html=1;fillColor=#FFE0E6;strokeColor=#FFCCCC;" parent="1" vertex="1">
          <mxGeometry x="460" y="385" width="30" height="70" as="geometry" />
        </mxCell>
        <mxCell id="O9PJK0Ftn6C582rbbvPH-37" value="" style="rounded=0;whiteSpace=wrap;html=1;fillColor=#FFE0E6;strokeColor=#FFCCCC;" parent="1" vertex="1">
          <mxGeometry x="700" y="372.5" width="110" height="40" as="geometry" />
        </mxCell>
        <mxCell id="O9PJK0Ftn6C582rbbvPH-41" value="" style="triangle;whiteSpace=wrap;html=1;fillColor=none;direction=north;" parent="1" vertex="1">
          <mxGeometry x="1025" y="479" width="10" height="10" as="geometry" />
        </mxCell>
        <mxCell id="O9PJK0Ftn6C582rbbvPH-48" value="" style="endArrow=none;html=1;rounded=0;entryX=0;entryY=0.5;entryDx=0;entryDy=0;exitX=1;exitY=0.5;exitDx=0;exitDy=0;strokeWidth=3;strokeColor=#FFCCCC;" parent="1" source="O9PJK0Ftn6C582rbbvPH-32" target="O9PJK0Ftn6C582rbbvPH-31" edge="1">
          <mxGeometry width="50" height="50" relative="1" as="geometry">
            <mxPoint x="510" y="465" as="sourcePoint" />
            <mxPoint x="560" y="415" as="targetPoint" />
          </mxGeometry>
        </mxCell>
        <mxCell id="O9PJK0Ftn6C582rbbvPH-49" value="" style="endArrow=none;html=1;rounded=0;entryX=0;entryY=0.5;entryDx=0;entryDy=0;exitX=1;exitY=0.5;exitDx=0;exitDy=0;strokeWidth=3;strokeColor=#FFCCCC;" parent="1" source="O9PJK0Ftn6C582rbbvPH-31" target="O9PJK0Ftn6C582rbbvPH-30" edge="1">
          <mxGeometry width="50" height="50" relative="1" as="geometry">
            <mxPoint x="560" y="410" as="sourcePoint" />
            <mxPoint x="570" y="410" as="targetPoint" />
          </mxGeometry>
        </mxCell>
        <mxCell id="O9PJK0Ftn6C582rbbvPH-50" value="" style="endArrow=none;html=1;rounded=0;entryX=0;entryY=0.5;entryDx=0;entryDy=0;strokeWidth=3;strokeColor=#FFCCCC;" parent="1" target="O9PJK0Ftn6C582rbbvPH-32" edge="1">
          <mxGeometry width="50" height="50" relative="1" as="geometry">
            <mxPoint x="490" y="400" as="sourcePoint" />
            <mxPoint x="580" y="420" as="targetPoint" />
          </mxGeometry>
        </mxCell>
        <mxCell id="O9PJK0Ftn6C582rbbvPH-51" value="" style="endArrow=none;html=1;rounded=0;exitX=0.203;exitY=0.996;exitDx=0;exitDy=0;entryX=0.5;entryY=0;entryDx=0;entryDy=0;strokeWidth=3;strokeColor=#FFCCCC;exitPerimeter=0;" parent="1" source="O9PJK0Ftn6C582rbbvPH-31" target="O9PJK0Ftn6C582rbbvPH-33" edge="1">
          <mxGeometry width="50" height="50" relative="1" as="geometry">
            <mxPoint x="650" y="465" as="sourcePoint" />
            <mxPoint x="700" y="415" as="targetPoint" />
          </mxGeometry>
        </mxCell>
        <mxCell id="O9PJK0Ftn6C582rbbvPH-52" value="" style="endArrow=none;html=1;rounded=0;exitX=0.5;exitY=1;exitDx=0;exitDy=0;entryX=0.333;entryY=0.001;entryDx=0;entryDy=0;entryPerimeter=0;strokeWidth=3;strokeColor=#FFCCCC;" parent="1" source="O9PJK0Ftn6C582rbbvPH-33" target="O9PJK0Ftn6C582rbbvPH-23" edge="1">
          <mxGeometry width="50" height="50" relative="1" as="geometry">
            <mxPoint x="583" y="425" as="sourcePoint" />
            <mxPoint x="580" y="435" as="targetPoint" />
          </mxGeometry>
        </mxCell>
        <mxCell id="O9PJK0Ftn6C582rbbvPH-53" value="" style="endArrow=none;html=1;rounded=0;exitX=1.001;exitY=0.138;exitDx=0;exitDy=0;entryX=-0.001;entryY=0.907;entryDx=0;entryDy=0;strokeWidth=3;strokeColor=#FFCCCC;entryPerimeter=0;exitPerimeter=0;" parent="1" source="O9PJK0Ftn6C582rbbvPH-23" target="O9PJK0Ftn6C582rbbvPH-29" edge="1">
          <mxGeometry width="50" height="50" relative="1" as="geometry">
            <mxPoint x="650" y="465" as="sourcePoint" />
            <mxPoint x="700" y="415" as="targetPoint" />
          </mxGeometry>
        </mxCell>
        <mxCell id="O9PJK0Ftn6C582rbbvPH-54" value="" style="endArrow=none;html=1;rounded=0;exitX=0.477;exitY=0.003;exitDx=0;exitDy=0;entryX=0.25;entryY=1;entryDx=0;entryDy=0;strokeWidth=3;strokeColor=#FFCCCC;exitPerimeter=0;" parent="1" source="O9PJK0Ftn6C582rbbvPH-29" target="O9PJK0Ftn6C582rbbvPH-37" edge="1">
          <mxGeometry width="50" height="50" relative="1" as="geometry">
            <mxPoint x="650" y="465" as="sourcePoint" />
            <mxPoint x="700" y="415" as="targetPoint" />
          </mxGeometry>
        </mxCell>
        <mxCell id="O9PJK0Ftn6C582rbbvPH-55" value="" style="endArrow=none;html=1;rounded=0;entryX=0.5;entryY=0;entryDx=0;entryDy=0;exitX=0.134;exitY=1.009;exitDx=0;exitDy=0;exitPerimeter=0;strokeWidth=3;strokeColor=#FFCCCC;" parent="1" source="O9PJK0Ftn6C582rbbvPH-23" target="O9PJK0Ftn6C582rbbvPH-21" edge="1">
          <mxGeometry width="50" height="50" relative="1" as="geometry">
            <mxPoint x="620" y="575" as="sourcePoint" />
            <mxPoint x="670" y="525" as="targetPoint" />
          </mxGeometry>
        </mxCell>
        <mxCell id="O9PJK0Ftn6C582rbbvPH-56" value="" style="endArrow=none;html=1;rounded=0;exitX=0.464;exitY=0.004;exitDx=0;exitDy=0;entryX=0.5;entryY=1;entryDx=0;entryDy=0;exitPerimeter=0;strokeWidth=3;strokeColor=#FFCCCC;" parent="1" source="O9PJK0Ftn6C582rbbvPH-18" target="O9PJK0Ftn6C582rbbvPH-22" edge="1">
          <mxGeometry width="50" height="50" relative="1" as="geometry">
            <mxPoint x="620" y="575" as="sourcePoint" />
            <mxPoint x="670" y="525" as="targetPoint" />
          </mxGeometry>
        </mxCell>
        <mxCell id="O9PJK0Ftn6C582rbbvPH-57" value="" style="endArrow=none;html=1;rounded=0;exitX=0.655;exitY=1.001;exitDx=0;exitDy=0;entryX=0.246;entryY=-0.007;entryDx=0;entryDy=0;exitPerimeter=0;strokeWidth=3;strokeColor=#FFCCCC;entryPerimeter=0;" parent="1" source="O9PJK0Ftn6C582rbbvPH-23" target="O9PJK0Ftn6C582rbbvPH-22" edge="1">
          <mxGeometry width="50" height="50" relative="1" as="geometry">
            <mxPoint x="620" y="575" as="sourcePoint" />
            <mxPoint x="670" y="525" as="targetPoint" />
          </mxGeometry>
        </mxCell>
        <mxCell id="O9PJK0Ftn6C582rbbvPH-58" value="" style="endArrow=none;html=1;rounded=0;entryX=0.5;entryY=1;entryDx=0;entryDy=0;exitX=0.334;exitY=0;exitDx=0;exitDy=0;strokeColor=#FFCCCC;strokeWidth=3;exitPerimeter=0;" parent="1" source="O9PJK0Ftn6C582rbbvPH-20" target="O9PJK0Ftn6C582rbbvPH-24" edge="1">
          <mxGeometry width="50" height="50" relative="1" as="geometry">
            <mxPoint x="620" y="575" as="sourcePoint" />
            <mxPoint x="670" y="525" as="targetPoint" />
          </mxGeometry>
        </mxCell>
        <mxCell id="O9PJK0Ftn6C582rbbvPH-59" value="" style="endArrow=none;html=1;rounded=0;exitX=1;exitY=0.5;exitDx=0;exitDy=0;entryX=-0.005;entryY=0.575;entryDx=0;entryDy=0;strokeColor=#FFCCCC;strokeWidth=3;entryPerimeter=0;" parent="1" source="O9PJK0Ftn6C582rbbvPH-18" target="O9PJK0Ftn6C582rbbvPH-20" edge="1">
          <mxGeometry width="50" height="50" relative="1" as="geometry">
            <mxPoint x="620" y="575" as="sourcePoint" />
            <mxPoint x="670" y="525" as="targetPoint" />
          </mxGeometry>
        </mxCell>
        <mxCell id="O9PJK0Ftn6C582rbbvPH-60" value="" style="endArrow=none;html=1;rounded=0;exitX=1;exitY=0.75;exitDx=0;exitDy=0;entryX=0;entryY=0.471;entryDx=0;entryDy=0;strokeColor=#FFCCCC;strokeWidth=3;entryPerimeter=0;" parent="1" source="O9PJK0Ftn6C582rbbvPH-21" target="O9PJK0Ftn6C582rbbvPH-18" edge="1">
          <mxGeometry width="50" height="50" relative="1" as="geometry">
            <mxPoint x="620" y="575" as="sourcePoint" />
            <mxPoint x="670" y="525" as="targetPoint" />
          </mxGeometry>
        </mxCell>
        <mxCell id="O9PJK0Ftn6C582rbbvPH-61" value="" style="endArrow=none;html=1;rounded=0;exitX=1;exitY=0.5;exitDx=0;exitDy=0;entryX=0.014;entryY=0.783;entryDx=0;entryDy=0;strokeColor=#FFCCCC;strokeWidth=3;entryPerimeter=0;" parent="1" source="O9PJK0Ftn6C582rbbvPH-27" target="O9PJK0Ftn6C582rbbvPH-21" edge="1">
          <mxGeometry width="50" height="50" relative="1" as="geometry">
            <mxPoint x="620" y="575" as="sourcePoint" />
            <mxPoint x="670" y="525" as="targetPoint" />
          </mxGeometry>
        </mxCell>
        <mxCell id="O9PJK0Ftn6C582rbbvPH-62" value="" style="endArrow=none;html=1;rounded=0;exitX=0.5;exitY=1;exitDx=0;exitDy=0;entryX=0.222;entryY=-0.004;entryDx=0;entryDy=0;strokeWidth=3;strokeColor=#FFCCCC;entryPerimeter=0;" parent="1" source="O9PJK0Ftn6C582rbbvPH-28" target="O9PJK0Ftn6C582rbbvPH-27" edge="1">
          <mxGeometry width="50" height="50" relative="1" as="geometry">
            <mxPoint x="620" y="575" as="sourcePoint" />
            <mxPoint x="670" y="525" as="targetPoint" />
          </mxGeometry>
        </mxCell>
        <mxCell id="O9PJK0Ftn6C582rbbvPH-63" value="" style="endArrow=none;html=1;rounded=0;exitX=0.985;exitY=0.051;exitDx=0;exitDy=0;exitPerimeter=0;entryX=0.006;entryY=0.944;entryDx=0;entryDy=0;entryPerimeter=0;strokeWidth=3;strokeColor=#FFCCCC;" parent="1" source="O9PJK0Ftn6C582rbbvPH-28" target="O9PJK0Ftn6C582rbbvPH-36" edge="1">
          <mxGeometry width="50" height="50" relative="1" as="geometry">
            <mxPoint x="620" y="575" as="sourcePoint" />
            <mxPoint x="670" y="525" as="targetPoint" />
          </mxGeometry>
        </mxCell>
        <mxCell id="O9PJK0Ftn6C582rbbvPH-64" value="" style="endArrow=none;html=1;rounded=0;exitX=0.962;exitY=1;exitDx=0;exitDy=0;entryX=0.664;entryY=-0.01;entryDx=0;entryDy=0;entryPerimeter=0;strokeWidth=3;strokeColor=#FFCCCC;exitPerimeter=0;" parent="1" source="O9PJK0Ftn6C582rbbvPH-29" target="O9PJK0Ftn6C582rbbvPH-24" edge="1">
          <mxGeometry width="50" height="50" relative="1" as="geometry">
            <mxPoint x="785" y="480" as="sourcePoint" />
            <mxPoint x="780" y="500" as="targetPoint" />
          </mxGeometry>
        </mxCell>
        <mxCell id="O9PJK0Ftn6C582rbbvPH-65" value="" style="endArrow=none;html=1;rounded=0;exitX=0;exitY=0.25;exitDx=0;exitDy=0;entryX=1;entryY=0.75;entryDx=0;entryDy=0;strokeWidth=3;strokeColor=#FFCCCC;" parent="1" source="O9PJK0Ftn6C582rbbvPH-36" target="O9PJK0Ftn6C582rbbvPH-34" edge="1">
          <mxGeometry width="50" height="50" relative="1" as="geometry">
            <mxPoint x="620" y="535" as="sourcePoint" />
            <mxPoint x="670" y="485" as="targetPoint" />
          </mxGeometry>
        </mxCell>
        <mxCell id="O9PJK0Ftn6C582rbbvPH-66" value="" style="endArrow=none;html=1;rounded=0;entryX=1;entryY=0.5;entryDx=0;entryDy=0;strokeWidth=3;strokeColor=#FFCCCC;exitX=-0.002;exitY=0.689;exitDx=0;exitDy=0;exitPerimeter=0;" parent="1" source="O9PJK0Ftn6C582rbbvPH-37" target="O9PJK0Ftn6C582rbbvPH-30" edge="1">
          <mxGeometry width="50" height="50" relative="1" as="geometry">
            <mxPoint x="620" y="535" as="sourcePoint" />
            <mxPoint x="670" y="485" as="targetPoint" />
          </mxGeometry>
        </mxCell>
        <mxCell id="O9PJK0Ftn6C582rbbvPH-68" value="The Lichenwood" style="text;html=1;align=center;verticalAlign=middle;whiteSpace=wrap;rounded=0;fontSize=20;horizontal=1;fontFamily=Garamond;" parent="1" vertex="1">
          <mxGeometry x="405" y="800" width="140" height="30" as="geometry" />
        </mxCell>
        <mxCell id="O9PJK0Ftn6C582rbbvPH-70" value="&lt;font style=&quot;font-size: 20px;&quot;&gt;Russet Grove&lt;/font&gt;" style="text;html=1;align=center;verticalAlign=middle;whiteSpace=wrap;rounded=0;fontFamily=Garamond;" parent="1" vertex="1">
          <mxGeometry x="460" y="532" width="50" height="30" as="geometry" />
        </mxCell>
        <mxCell id="O9PJK0Ftn6C582rbbvPH-71" value="The Line Storm Ridge" style="text;html=1;align=center;verticalAlign=middle;whiteSpace=wrap;rounded=0;fontFamily=Garamond;fontSize=20;" parent="1" vertex="1">
          <mxGeometry x="830" y="50" width="180" height="30" as="geometry" />
        </mxCell>
        <mxCell id="O9PJK0Ftn6C582rbbvPH-72" value="&lt;p style=&quot;line-height: 100%; font-size: 8px;&quot;&gt;&lt;font style=&quot;font-size: 8px;&quot;&gt;Blueberry bushes in Harriman in the fall vibes + the rocks&lt;/font&gt;&lt;/p&gt;" style="text;html=1;align=center;verticalAlign=middle;whiteSpace=wrap;rounded=0;fontSize=8;" parent="1" vertex="1">
          <mxGeometry x="710" y="635" width="120" height="30" as="geometry" />
        </mxCell>
        <mxCell id="O9PJK0Ftn6C582rbbvPH-73" value="Lichen &amp;amp; sycamore trees --&amp;gt; the trolls paining by Alan Lee" style="text;html=1;align=center;verticalAlign=middle;whiteSpace=wrap;rounded=0;fontSize=8;" parent="1" vertex="1">
          <mxGeometry x="630" y="800" width="150" height="30" as="geometry" />
        </mxCell>
        <mxCell id="O9PJK0Ftn6C582rbbvPH-74" value="minor civilization, shacks and towns" style="text;html=1;align=center;verticalAlign=middle;whiteSpace=wrap;rounded=0;fontSize=8;" parent="1" vertex="1">
          <mxGeometry x="400" y="635" width="120" height="30" as="geometry" />
        </mxCell>
        <mxCell id="O9PJK0Ftn6C582rbbvPH-75" value="major civilization, towering cliffside cities" style="text;html=1;align=center;verticalAlign=middle;whiteSpace=wrap;rounded=0;fontSize=8;" parent="1" vertex="1">
          <mxGeometry x="50" y="645" width="110" height="30" as="geometry" />
        </mxCell>
        <mxCell id="O9PJK0Ftn6C582rbbvPH-76" value="The Outpost" style="text;html=1;align=center;verticalAlign=middle;whiteSpace=wrap;rounded=0;fontSize=20;fontFamily=Garamond;" parent="1" vertex="1">
          <mxGeometry x="855" y="334.37" width="110" height="30" as="geometry" />
        </mxCell>
        <mxCell id="O9PJK0Ftn6C582rbbvPH-77" value="The Citadel" style="text;html=1;align=center;verticalAlign=middle;whiteSpace=wrap;rounded=0;fontSize=18;fontFamily=Garamond;" parent="1" vertex="1">
          <mxGeometry x="910.75" y="495" width="95" height="30" as="geometry" />
        </mxCell>
        <mxCell id="O9PJK0Ftn6C582rbbvPH-78" value="wetter in base of canyon, drier as you go up" style="text;html=1;align=center;verticalAlign=middle;whiteSpace=wrap;rounded=0;fontSize=8;" parent="1" vertex="1">
          <mxGeometry x="160" y="645" width="100" height="30" as="geometry" />
        </mxCell>
        <mxCell id="O9PJK0Ftn6C582rbbvPH-79" value="Wadi Spire" style="text;html=1;align=center;verticalAlign=middle;resizable=0;points=[];autosize=1;strokeColor=none;fillColor=none;fontSize=20;fontFamily=Garamond;" parent="1" vertex="1">
          <mxGeometry x="50" y="330" width="110" height="40" as="geometry" />
        </mxCell>
        <mxCell id="O9PJK0Ftn6C582rbbvPH-80" value="The Wheatglow" style="text;html=1;align=center;verticalAlign=middle;whiteSpace=wrap;rounded=0;fontSize=20;fontFamily=Garamond;" parent="1" vertex="1">
          <mxGeometry x="225" y="85" width="160" height="30" as="geometry" />
        </mxCell>
        <mxCell id="O9PJK0Ftn6C582rbbvPH-81" value="" style="rounded=0;whiteSpace=wrap;html=1;fillColor=#d5e8d4;strokeColor=#82b366;opacity=60;" parent="1" vertex="1">
          <mxGeometry x="796" y="680" width="564" height="145" as="geometry" />
        </mxCell>
        <mxCell id="O9PJK0Ftn6C582rbbvPH-82" value="The Crystal Mire" style="text;html=1;align=center;verticalAlign=middle;whiteSpace=wrap;rounded=0;fontSize=20;fontFamily=Garamond;" parent="1" vertex="1">
          <mxGeometry x="1132.5" y="740" width="140" height="30" as="geometry" />
        </mxCell>
        <mxCell id="O9PJK0Ftn6C582rbbvPH-83" style="edgeStyle=orthogonalEdgeStyle;rounded=0;orthogonalLoop=1;jettySize=auto;html=1;exitX=0.5;exitY=1;exitDx=0;exitDy=0;" parent="1" source="O9PJK0Ftn6C582rbbvPH-82" target="O9PJK0Ftn6C582rbbvPH-82" edge="1">
          <mxGeometry relative="1" as="geometry" />
        </mxCell>
        <mxCell id="O9PJK0Ftn6C582rbbvPH-85" value="--" style="rounded=0;whiteSpace=wrap;html=1;fillColor=#60a917;fontColor=#ffffff;strokeColor=#2D7600;opacity=20;" parent="1" vertex="1">
          <mxGeometry x="1220" y="220" width="220" height="454" as="geometry" />
        </mxCell>
        <mxCell id="O9PJK0Ftn6C582rbbvPH-87" value="&lt;span style=&quot;font-size: 8px; text-wrap: nowrap;&quot;&gt;storm clouds, jagged rocky peaks,&lt;/span&gt;&lt;div style=&quot;line-height: 60%;&quot;&gt;&lt;span style=&quot;font-size: 8px; text-wrap: nowrap;&quot;&gt;white flags fluttering in the wind,&amp;nbsp;&lt;/span&gt;&lt;/div&gt;&lt;div style=&quot;line-height: 60%;&quot;&gt;&lt;span style=&quot;font-size: 8px; text-wrap: nowrap;&quot;&gt;rivulets running down the slopes&lt;/span&gt;&lt;/div&gt;" style="text;html=1;align=center;verticalAlign=middle;rounded=0;spacing=0;whiteSpace=wrap;labelBackgroundColor=none;" parent="1" vertex="1">
          <mxGeometry x="1070" y="50" width="130" height="50" as="geometry" />
        </mxCell>
        <mxCell id="O9PJK0Ftn6C582rbbvPH-88" value="" style="rounded=0;whiteSpace=wrap;html=1;fillColor=#F5FAFF;strokeColor=#36393d;opacity=40;textOpacity=60;" parent="1" vertex="1">
          <mxGeometry x="575" y="167.25" width="157.5" height="137.5" as="geometry" />
        </mxCell>
        <mxCell id="O9PJK0Ftn6C582rbbvPH-89" value="The Alcove" style="text;html=1;align=center;verticalAlign=middle;whiteSpace=wrap;rounded=0;fontSize=18;fontFamily=Garamond;" parent="1" vertex="1">
          <mxGeometry x="630" y="167.25" width="110" height="30" as="geometry" />
        </mxCell>
        <mxCell id="O9PJK0Ftn6C582rbbvPH-93" value="1" style="text;html=1;align=center;verticalAlign=middle;whiteSpace=wrap;rounded=0;fontSize=6;" parent="1" vertex="1">
          <mxGeometry x="1025" y="480" width="10" height="10" as="geometry" />
        </mxCell>
        <mxCell id="O9PJK0Ftn6C582rbbvPH-99" value="The storms come from the east and hit the ridge, most of it spilling down the verdant cavern and collecting in the mire below, with some of it misting over into the wheatglow" style="text;html=1;align=center;verticalAlign=middle;whiteSpace=wrap;rounded=0;" parent="1" vertex="1">
          <mxGeometry x="1370" y="25" width="220" height="30" as="geometry" />
        </mxCell>
        <mxCell id="O9PJK0Ftn6C582rbbvPH-101" value="Evergreen Crags" style="text;html=1;align=center;verticalAlign=middle;whiteSpace=wrap;rounded=0;fontSize=20;fontFamily=Garamond;" parent="1" vertex="1">
          <mxGeometry x="1360" y="340" width="60" height="30" as="geometry" />
        </mxCell>
        <mxCell id="O9PJK0Ftn6C582rbbvPH-103" value="" style="rounded=0;whiteSpace=wrap;html=1;fillColor=#B38884;fontColor=#ffffff;strokeColor=#5C0000;opacity=40;" parent="1" vertex="1">
          <mxGeometry x="70" y="520" width="40" height="110" as="geometry" />
        </mxCell>
        <mxCell id="O9PJK0Ftn6C582rbbvPH-104" value="" style="rounded=0;whiteSpace=wrap;html=1;fillColor=#B38884;fontColor=#ffffff;strokeColor=#5C0000;opacity=40;" parent="1" vertex="1">
          <mxGeometry x="170" y="410" width="60" height="105" as="geometry" />
        </mxCell>
        <mxCell id="O9PJK0Ftn6C582rbbvPH-105" value="" style="rounded=0;whiteSpace=wrap;html=1;fillColor=#B38884;fontColor=#ffffff;strokeColor=#5C0000;opacity=40;" parent="1" vertex="1">
          <mxGeometry x="280" y="510" width="40" height="125" as="geometry" />
        </mxCell>
        <mxCell id="O9PJK0Ftn6C582rbbvPH-106" value="" style="rounded=0;whiteSpace=wrap;html=1;fillColor=#B38884;fontColor=#ffffff;strokeColor=#5C0000;opacity=40;" parent="1" vertex="1">
          <mxGeometry x="130" y="432.5" width="30" height="105" as="geometry" />
        </mxCell>
        <mxCell id="O9PJK0Ftn6C582rbbvPH-107" value="" style="rounded=0;whiteSpace=wrap;html=1;fillColor=#B38884;fontColor=#ffffff;strokeColor=#5C0000;opacity=40;" parent="1" vertex="1">
          <mxGeometry x="190" y="525" width="80" height="36.25" as="geometry" />
        </mxCell>
        <mxCell id="O9PJK0Ftn6C582rbbvPH-108" value="" style="rounded=0;whiteSpace=wrap;html=1;fillColor=#B38884;fontColor=#ffffff;strokeColor=#5C0000;opacity=40;" parent="1" vertex="1">
          <mxGeometry x="240" y="460" width="100" height="40" as="geometry" />
        </mxCell>
        <mxCell id="O9PJK0Ftn6C582rbbvPH-109" value="" style="rounded=0;whiteSpace=wrap;html=1;fillColor=#B38884;fontColor=#ffffff;strokeColor=#5C0000;opacity=40;" parent="1" vertex="1">
          <mxGeometry x="240" y="370" width="60" height="24.37" as="geometry" />
        </mxCell>
        <mxCell id="O9PJK0Ftn6C582rbbvPH-110" value="" style="rounded=0;whiteSpace=wrap;html=1;fillColor=#B38884;fontColor=#ffffff;strokeColor=#5C0000;opacity=40;" parent="1" vertex="1">
          <mxGeometry x="310" y="370" width="60" height="24.37" as="geometry" />
        </mxCell>
        <mxCell id="O9PJK0Ftn6C582rbbvPH-112" value="" style="rounded=0;whiteSpace=wrap;html=1;fillColor=#B38884;fontColor=#ffffff;strokeColor=#5C0000;opacity=40;" parent="1" vertex="1">
          <mxGeometry x="120" y="545.63" width="60" height="24.37" as="geometry" />
        </mxCell>
        <mxCell id="O9PJK0Ftn6C582rbbvPH-113" value="" style="rounded=0;whiteSpace=wrap;html=1;fillColor=#B38884;fontColor=#ffffff;strokeColor=#5C0000;opacity=40;" parent="1" vertex="1">
          <mxGeometry x="175" y="580" width="60" height="52.5" as="geometry" />
        </mxCell>
        <mxCell id="O9PJK0Ftn6C582rbbvPH-114" value="" style="rounded=0;whiteSpace=wrap;html=1;fillColor=#874300;fontColor=#ffffff;strokeColor=#874300;opacity=40;" parent="1" vertex="1">
          <mxGeometry x="250" y="715" width="150" height="31.25" as="geometry" />
        </mxCell>
        <mxCell id="O9PJK0Ftn6C582rbbvPH-115" value="" style="rounded=0;whiteSpace=wrap;html=1;fillColor=#874300;fontColor=#ffffff;strokeColor=#874300;opacity=40;" parent="1" vertex="1">
          <mxGeometry x="285" y="755" width="80" height="22.5" as="geometry" />
        </mxCell>
        <mxCell id="O9PJK0Ftn6C582rbbvPH-116" value="" style="rounded=0;whiteSpace=wrap;html=1;fillColor=#874300;fontColor=#ffffff;strokeColor=#874300;opacity=40;" parent="1" vertex="1">
          <mxGeometry x="250" y="785" width="130" height="30" as="geometry" />
        </mxCell>
        <mxCell id="O9PJK0Ftn6C582rbbvPH-117" value="" style="rounded=0;whiteSpace=wrap;html=1;fillColor=#874300;fontColor=#ffffff;strokeColor=#874300;opacity=40;" parent="1" vertex="1">
          <mxGeometry x="390" y="755" width="160" height="30" as="geometry" />
        </mxCell>
        <mxCell id="O9PJK0Ftn6C582rbbvPH-118" value="" style="rounded=0;whiteSpace=wrap;html=1;fillColor=#874300;fontColor=#ffffff;strokeColor=#874300;opacity=40;" parent="1" vertex="1">
          <mxGeometry x="585" y="695" width="160" height="28.75" as="geometry" />
        </mxCell>
        <mxCell id="O9PJK0Ftn6C582rbbvPH-119" value="" style="rounded=0;whiteSpace=wrap;html=1;fillColor=#874300;fontColor=#ffffff;strokeColor=#874300;opacity=50;shadow=1;" parent="1" vertex="1">
          <mxGeometry x="525" y="706.25" width="50" height="40" as="geometry" />
        </mxCell>
        <mxCell id="O9PJK0Ftn6C582rbbvPH-120" value="" style="rounded=0;whiteSpace=wrap;html=1;fillColor=#874300;fontColor=#ffffff;strokeColor=#874300;opacity=40;" parent="1" vertex="1">
          <mxGeometry x="410" y="698.75" width="105" height="22.5" as="geometry" />
        </mxCell>
        <mxCell id="O9PJK0Ftn6C582rbbvPH-121" value="" style="rounded=0;whiteSpace=wrap;html=1;fillColor=#874300;fontColor=#ffffff;strokeColor=#874300;opacity=40;" parent="1" vertex="1">
          <mxGeometry x="558.75" y="765" width="102.5" height="20" as="geometry" />
        </mxCell>
        <mxCell id="O9PJK0Ftn6C582rbbvPH-123" value="" style="rounded=0;whiteSpace=wrap;html=1;fillColor=#874300;fontColor=#ffffff;strokeColor=#874300;opacity=40;" parent="1" vertex="1">
          <mxGeometry x="605" y="735" width="102.5" height="20" as="geometry" />
        </mxCell>
        <mxCell id="O9PJK0Ftn6C582rbbvPH-125" value="" style="rounded=0;whiteSpace=wrap;html=1;fillColor=#874300;fontColor=#ffffff;strokeColor=#874300;opacity=40;" parent="1" vertex="1">
          <mxGeometry x="672.5" y="765" width="50" height="35" as="geometry" />
        </mxCell>
        <mxCell id="O9PJK0Ftn6C582rbbvPH-126" value="The Blueberry Patches" style="text;html=1;align=center;verticalAlign=middle;whiteSpace=wrap;rounded=0;fontSize=10;fontFamily=Garamond;" parent="1" vertex="1">
          <mxGeometry x="490" y="361.25" width="130" height="30" as="geometry" />
        </mxCell>
        <mxCell id="O9PJK0Ftn6C582rbbvPH-127" value="" style="rounded=0;whiteSpace=wrap;html=1;fillColor=#C3E8C4;strokeColor=#82b366;" parent="1" vertex="1">
          <mxGeometry x="825" y="776.25" width="180" height="30" as="geometry" />
        </mxCell>
        <mxCell id="O9PJK0Ftn6C582rbbvPH-128" value="" style="rounded=0;whiteSpace=wrap;html=1;fillColor=#C3E8C4;strokeColor=#82b366;" parent="1" vertex="1">
          <mxGeometry x="860" y="731.25" width="180" height="30" as="geometry" />
        </mxCell>
        <mxCell id="O9PJK0Ftn6C582rbbvPH-129" value="" style="rounded=0;whiteSpace=wrap;html=1;fillColor=#C3E8C4;strokeColor=#82b366;" parent="1" vertex="1">
          <mxGeometry x="1138" y="695" width="125" height="30" as="geometry" />
        </mxCell>
        <mxCell id="O9PJK0Ftn6C582rbbvPH-130" value="" style="rounded=0;whiteSpace=wrap;html=1;fillColor=#B8E0BA;strokeColor=#82b366;shadow=1;" parent="1" vertex="1">
          <mxGeometry x="1055" y="728" width="65" height="42" as="geometry" />
        </mxCell>
        <mxCell id="O9PJK0Ftn6C582rbbvPH-131" value="" style="rounded=0;whiteSpace=wrap;html=1;fillColor=#C3E8C4;strokeColor=#82b366;" parent="1" vertex="1">
          <mxGeometry x="810" y="690" width="180" height="30" as="geometry" />
        </mxCell>
        <mxCell id="O9PJK0Ftn6C582rbbvPH-132" value="" style="rounded=0;whiteSpace=wrap;html=1;fillColor=#C3E8C4;strokeColor=#82b366;" parent="1" vertex="1">
          <mxGeometry x="1140" y="776.25" width="180" height="30" as="geometry" />
        </mxCell>
        <mxCell id="O9PJK0Ftn6C582rbbvPH-134" value="" style="rounded=0;whiteSpace=wrap;html=1;fillColor=#C3E8C4;strokeColor=#82b366;" parent="1" vertex="1">
          <mxGeometry x="1280" y="691" width="70" height="75.25" as="geometry" />
        </mxCell>
        <mxCell id="O9PJK0Ftn6C582rbbvPH-135" value="" style="rounded=0;whiteSpace=wrap;html=1;fillColor=#B38884;gradientColor=#874300;strokeColor=#5C0000;opacity=40;" parent="1" vertex="1">
          <mxGeometry x="308.75" y="645" width="32.5" height="60" as="geometry" />
        </mxCell>
        <mxCell id="O9PJK0Ftn6C582rbbvPH-136" value="" style="rounded=0;whiteSpace=wrap;html=1;fillColor=#B38884;gradientColor=#FFE0E6;strokeColor=#FFCCCC;gradientDirection=east;opacity=70;" parent="1" vertex="1">
          <mxGeometry x="330" y="605" width="70" height="30" as="geometry" />
        </mxCell>
        <mxCell id="O9PJK0Ftn6C582rbbvPH-140" value="" style="rounded=0;whiteSpace=wrap;html=1;fillColor=#cdeb8b;strokeColor=#557065;opacity=80;" parent="1" vertex="1">
          <mxGeometry x="1240" y="553.75" width="50" height="100" as="geometry" />
        </mxCell>
        <mxCell id="O9PJK0Ftn6C582rbbvPH-141" value="" style="rounded=0;whiteSpace=wrap;html=1;fillColor=#cdeb8b;strokeColor=#557065;direction=south;opacity=80;" parent="1" vertex="1">
          <mxGeometry x="1310" y="555" width="100" height="50" as="geometry" />
        </mxCell>
        <mxCell id="O9PJK0Ftn6C582rbbvPH-142" value="" style="rounded=0;whiteSpace=wrap;html=1;fillColor=#cdeb8b;strokeColor=#557065;opacity=80;shadow=0;glass=0;" parent="1" vertex="1">
          <mxGeometry x="1370" y="440" width="50" height="100" as="geometry" />
        </mxCell>
        <mxCell id="O9PJK0Ftn6C582rbbvPH-143" value="" style="rounded=0;whiteSpace=wrap;html=1;fillColor=#cdeb8b;strokeColor=#557065;opacity=80;" parent="1" vertex="1">
          <mxGeometry x="1260" y="510" width="65" height="35.63" as="geometry" />
        </mxCell>
        <mxCell id="O9PJK0Ftn6C582rbbvPH-144" value="" style="rounded=0;whiteSpace=wrap;html=1;fillColor=#cdeb8b;strokeColor=#557065;opacity=80;" parent="1" vertex="1">
          <mxGeometry x="1240" y="400" width="40" height="100" as="geometry" />
        </mxCell>
        <mxCell id="O9PJK0Ftn6C582rbbvPH-145" value="" style="rounded=0;whiteSpace=wrap;html=1;fillColor=#cdeb8b;strokeColor=#557065;opacity=80;" parent="1" vertex="1">
          <mxGeometry x="1290" y="350" width="50" height="100" as="geometry" />
        </mxCell>
        <mxCell id="O9PJK0Ftn6C582rbbvPH-146" value="" style="rounded=0;whiteSpace=wrap;html=1;fillColor=#cdeb8b;strokeColor=#557065;opacity=80;" parent="1" vertex="1">
          <mxGeometry x="1350" y="402.5" width="50" height="30" as="geometry" />
        </mxCell>
        <mxCell id="O9PJK0Ftn6C582rbbvPH-149" value="" style="rounded=0;whiteSpace=wrap;html=1;fillColor=#cdeb8b;strokeColor=#557065;opacity=80;direction=south;" parent="1" vertex="1">
          <mxGeometry x="1266.25" y="287" width="75" height="50" as="geometry" />
        </mxCell>
        <mxCell id="O9PJK0Ftn6C582rbbvPH-150" value="" style="rounded=0;whiteSpace=wrap;html=1;fillColor=#cdeb8b;strokeColor=#557065;opacity=80;direction=south;" parent="1" vertex="1">
          <mxGeometry x="1360" y="232.25" width="40" height="72.5" as="geometry" />
        </mxCell>
        <mxCell id="O9PJK0Ftn6C582rbbvPH-151" value="" style="rounded=0;whiteSpace=wrap;html=1;fillColor=#cdeb8b;strokeColor=#557065;opacity=80;direction=west;gradientColor=#CCE5FF;gradientDirection=east;" parent="1" vertex="1">
          <mxGeometry x="1190" y="234.75" width="70" height="35.25" as="geometry" />
        </mxCell>
        <mxCell id="O9PJK0Ftn6C582rbbvPH-152" value="" style="rounded=0;whiteSpace=wrap;html=1;fillColor=#cdeb8b;strokeColor=#557065;opacity=80;direction=west;" parent="1" vertex="1">
          <mxGeometry x="1270" y="234.75" width="80" height="40" as="geometry" />
        </mxCell>
        <mxCell id="O9PJK0Ftn6C582rbbvPH-153" value="" style="rounded=0;whiteSpace=wrap;html=1;fillColor=#FFF0BD;strokeColor=#007FFF;" parent="1" vertex="1">
          <mxGeometry x="230" y="256.25" width="155" height="33.75" as="geometry" />
        </mxCell>
        <mxCell id="O9PJK0Ftn6C582rbbvPH-155" value="" style="rounded=0;whiteSpace=wrap;html=1;fillColor=#F5E6B5;strokeColor=#007FFF;shadow=1;" parent="1" vertex="1">
          <mxGeometry x="95" y="100" width="85" height="67.25" as="geometry" />
        </mxCell>
        <mxCell id="O9PJK0Ftn6C582rbbvPH-156" value="" style="rounded=0;whiteSpace=wrap;html=1;fillColor=#FFF0BD;strokeColor=#007FFF;" parent="1" vertex="1">
          <mxGeometry x="125" y="256.25" width="45" height="33.75" as="geometry" />
        </mxCell>
        <mxCell id="O9PJK0Ftn6C582rbbvPH-157" value="" style="rounded=0;whiteSpace=wrap;html=1;fillColor=#FFF0BD;strokeColor=#007FFF;opacity=60;gradientColor=#B38884;" parent="1" vertex="1">
          <mxGeometry x="182.5" y="265" width="35" height="82.25" as="geometry" />
        </mxCell>
        <mxCell id="O9PJK0Ftn6C582rbbvPH-158" value="" style="rounded=0;whiteSpace=wrap;html=1;fillColor=#FFF0BD;strokeColor=#007FFF;" parent="1" vertex="1">
          <mxGeometry x="127.5" y="210" width="155" height="32.25" as="geometry" />
        </mxCell>
        <mxCell id="O9PJK0Ftn6C582rbbvPH-159" value="" style="rounded=0;whiteSpace=wrap;html=1;fillColor=#FFF0BD;strokeColor=#007FFF;" parent="1" vertex="1">
          <mxGeometry x="187.5" y="130.25" width="52.5" height="67.25" as="geometry" />
        </mxCell>
        <mxCell id="O9PJK0Ftn6C582rbbvPH-160" value="" style="rounded=0;whiteSpace=wrap;html=1;fillColor=#FFF0BD;strokeColor=#007FFF;direction=south;" parent="1" vertex="1">
          <mxGeometry x="478.875" y="86.375" width="42.25" height="155" as="geometry" />
        </mxCell>
        <mxCell id="O9PJK0Ftn6C582rbbvPH-161" value="" style="rounded=0;whiteSpace=wrap;html=1;fillColor=#FFF0BD;strokeColor=#007FFF;" parent="1" vertex="1">
          <mxGeometry x="305" y="210" width="155" height="32.25" as="geometry" />
        </mxCell>
        <mxCell id="O9PJK0Ftn6C582rbbvPH-163" value="" style="rounded=0;whiteSpace=wrap;html=1;fillColor=#FFF0BD;strokeColor=#007FFF;" parent="1" vertex="1">
          <mxGeometry x="401.25" y="250" width="98.75" height="54.75" as="geometry" />
        </mxCell>
        <mxCell id="O9PJK0Ftn6C582rbbvPH-165" value="" style="rounded=0;whiteSpace=wrap;html=1;fillColor=#FFF0BD;strokeColor=#007FFF;" parent="1" vertex="1">
          <mxGeometry x="400" y="88" width="60" height="42.25" as="geometry" />
        </mxCell>
        <mxCell id="O9PJK0Ftn6C582rbbvPH-168" value="" style="rounded=0;whiteSpace=wrap;html=1;fillColor=#cce5ff;strokeColor=#36393d;" parent="1" vertex="1">
          <mxGeometry x="580" y="55" width="120" height="35" as="geometry" />
        </mxCell>
        <mxCell id="O9PJK0Ftn6C582rbbvPH-172" style="edgeStyle=orthogonalEdgeStyle;rounded=0;orthogonalLoop=1;jettySize=auto;html=1;exitX=0.5;exitY=1;exitDx=0;exitDy=0;" parent="1" source="O9PJK0Ftn6C582rbbvPH-71" target="O9PJK0Ftn6C582rbbvPH-71" edge="1">
          <mxGeometry relative="1" as="geometry" />
        </mxCell>
        <mxCell id="O9PJK0Ftn6C582rbbvPH-173" value="" style="rounded=0;whiteSpace=wrap;html=1;fillColor=#cce5ff;strokeColor=#36393d;" parent="1" vertex="1">
          <mxGeometry x="800" y="116.13" width="120" height="35" as="geometry" />
        </mxCell>
        <mxCell id="O9PJK0Ftn6C582rbbvPH-174" value="" style="rounded=0;whiteSpace=wrap;html=1;fillColor=#cce5ff;strokeColor=#36393d;" parent="1" vertex="1">
          <mxGeometry x="1070" y="234.75" width="110" height="35" as="geometry" />
        </mxCell>
        <mxCell id="O9PJK0Ftn6C582rbbvPH-175" value="" style="rounded=0;whiteSpace=wrap;html=1;fillColor=#cce5ff;strokeColor=#36393d;" parent="1" vertex="1">
          <mxGeometry x="980" y="204.75" width="40" height="100" as="geometry" />
        </mxCell>
        <mxCell id="O9PJK0Ftn6C582rbbvPH-176" value="" style="rounded=0;whiteSpace=wrap;html=1;fillColor=#cce5ff;strokeColor=#36393d;direction=south;" parent="1" vertex="1">
          <mxGeometry x="750" y="90" width="35" height="120" as="geometry" />
        </mxCell>
        <mxCell id="O9PJK0Ftn6C582rbbvPH-177" value="" style="rounded=0;whiteSpace=wrap;html=1;fillColor=#cce5ff;strokeColor=#36393d;direction=west;" parent="1" vertex="1">
          <mxGeometry x="650" y="100" width="82.5" height="50" as="geometry" />
        </mxCell>
        <mxCell id="O9PJK0Ftn6C582rbbvPH-178" value="" style="rounded=0;whiteSpace=wrap;html=1;fillColor=#cce5ff;strokeColor=#36393d;direction=south;" parent="1" vertex="1">
          <mxGeometry x="930" y="130" width="35" height="120" as="geometry" />
        </mxCell>
        <mxCell id="O9PJK0Ftn6C582rbbvPH-179" value="" style="rounded=0;whiteSpace=wrap;html=1;fillColor=#cce5ff;strokeColor=#36393d;direction=south;" parent="1" vertex="1">
          <mxGeometry x="855" y="164.75" width="60" height="40" as="geometry" />
        </mxCell>
        <mxCell id="O9PJK0Ftn6C582rbbvPH-180" value="" style="rounded=0;whiteSpace=wrap;html=1;fillColor=#cce5ff;strokeColor=#36393d;direction=west;" parent="1" vertex="1">
          <mxGeometry x="750" y="222.25" width="82.5" height="50" as="geometry" />
        </mxCell>
        <mxCell id="O9PJK0Ftn6C582rbbvPH-181" value="" style="rounded=0;whiteSpace=wrap;html=1;fillColor=#cce5ff;strokeColor=#36393d;direction=south;" parent="1" vertex="1">
          <mxGeometry x="850" y="220" width="35" height="90" as="geometry" />
        </mxCell>
        <mxCell id="O9PJK0Ftn6C582rbbvPH-182" value="" style="rounded=0;whiteSpace=wrap;html=1;fillColor=#cce5ff;strokeColor=#36393d;" parent="1" vertex="1">
          <mxGeometry x="1034" y="187.25" width="80" height="35" as="geometry" />
        </mxCell>
        <mxCell id="O9PJK0Ftn6C582rbbvPH-183" value="" style="rounded=0;whiteSpace=wrap;html=1;fillColor=#CCE5FF;strokeColor=#6C727A;opacity=80;direction=south;gradientColor=#FFFF88;gradientDirection=east;" parent="1" vertex="1">
          <mxGeometry x="1126.25" y="281.25" width="35" height="80" as="geometry" />
        </mxCell>
        <mxCell id="O9PJK0Ftn6C582rbbvPH-184" value="" style="rounded=0;whiteSpace=wrap;html=1;fillColor=#ffff88;strokeColor=#6C727A;opacity=80;" parent="1" vertex="1">
          <mxGeometry x="990" y="372.5" width="120" height="35" as="geometry" />
        </mxCell>
        <mxCell id="O9PJK0Ftn6C582rbbvPH-185" value="" style="rounded=0;whiteSpace=wrap;html=1;fillColor=#cce5ff;strokeColor=#003770;gradientColor=#FFF0BD;gradientDirection=west;" parent="1" vertex="1">
          <mxGeometry x="530" y="100" width="100" height="35" as="geometry" />
        </mxCell>
        <mxCell id="O9PJK0Ftn6C582rbbvPH-186" value="" style="rounded=0;whiteSpace=wrap;html=1;fillColor=#C2E0FF;strokeColor=#36393d;shadow=1;" parent="1" vertex="1">
          <mxGeometry x="1034" y="110" width="80" height="65" as="geometry" />
        </mxCell>
        <mxCell id="O9PJK0Ftn6C582rbbvPH-187" value="" style="rounded=0;whiteSpace=wrap;html=1;fillColor=#B38881;fontColor=#ffffff;strokeColor=#5C0000;opacity=50;shadow=1;" parent="1" vertex="1">
          <mxGeometry x="170" y="360" width="60" height="40" as="geometry" />
        </mxCell>
        <mxCell id="O9PJK0Ftn6C582rbbvPH-191" value="Village" style="text;html=1;align=center;verticalAlign=middle;whiteSpace=wrap;rounded=0;fontSize=8;fontFamily=Times New Roman;" parent="1" vertex="1">
          <mxGeometry x="732.5" y="420" width="60" height="30" as="geometry" />
        </mxCell>
        <mxCell id="O9PJK0Ftn6C582rbbvPH-192" value="City Outskirts" style="text;html=1;align=center;verticalAlign=middle;whiteSpace=wrap;rounded=0;fontSize=8;fontFamily=Times New Roman;" parent="1" vertex="1">
          <mxGeometry x="405" y="583.75" width="60" height="20" as="geometry" />
        </mxCell>
        <mxCell id="O9PJK0Ftn6C582rbbvPH-194" value="" style="rounded=0;whiteSpace=wrap;html=1;fillColor=#FFE0E6;strokeColor=#FFCCCC;" parent="1" vertex="1">
          <mxGeometry x="460.62" y="310" width="30" height="65" as="geometry" />
        </mxCell>
        <mxCell id="O9PJK0Ftn6C582rbbvPH-195" value="" style="rounded=0;whiteSpace=wrap;html=1;fillColor=#cce5ff;strokeColor=#573441;direction=south;gradientColor=#FFECE3;gradientDirection=east;opacity=90;" parent="1" vertex="1">
          <mxGeometry x="750" y="284.37" width="35" height="80" as="geometry" />
        </mxCell>
        <mxCell id="O9PJK0Ftn6C582rbbvPH-197" value="" style="rounded=0;whiteSpace=wrap;html=1;fillColor=#ffff88;strokeColor=#6C727A;opacity=80;direction=south;" parent="1" vertex="1">
          <mxGeometry x="1152.5" y="493" width="37.5" height="116" as="geometry" />
        </mxCell>
        <mxCell id="O9PJK0Ftn6C582rbbvPH-201" value="" style="rounded=0;whiteSpace=wrap;html=1;fillColor=#ffff88;strokeColor=#6C727A;opacity=80;" parent="1" vertex="1">
          <mxGeometry x="1060" y="620" width="132.5" height="40" as="geometry" />
        </mxCell>
        <mxCell id="O9PJK0Ftn6C582rbbvPH-202" value="" style="rounded=0;whiteSpace=wrap;html=1;fillColor=#ffff88;strokeColor=#6C727A;opacity=80;direction=south;" parent="1" vertex="1">
          <mxGeometry x="865" y="550" width="40" height="107.5" as="geometry" />
        </mxCell>
        <mxCell id="O9PJK0Ftn6C582rbbvPH-203" value="" style="rounded=0;whiteSpace=wrap;html=1;fillColor=#ffff88;strokeColor=#6C727A;opacity=80;direction=west;" parent="1" vertex="1">
          <mxGeometry x="1060" y="417" width="120" height="30" as="geometry" />
        </mxCell>
        <mxCell id="O9PJK0Ftn6C582rbbvPH-204" value="" style="rounded=0;whiteSpace=wrap;html=1;fillColor=#ffff88;strokeColor=#6C727A;opacity=80;" parent="1" vertex="1">
          <mxGeometry x="1083" y="456" width="60" height="35" as="geometry" />
        </mxCell>
        <mxCell id="O9PJK0Ftn6C582rbbvPH-205" value="" style="rounded=0;whiteSpace=wrap;html=1;fillColor=#ffff88;strokeColor=#6C727A;opacity=80;" parent="1" vertex="1">
          <mxGeometry x="1120" y="372.5" width="66.25" height="35" as="geometry" />
        </mxCell>
        <mxCell id="O9PJK0Ftn6C582rbbvPH-206" value="" style="rounded=0;whiteSpace=wrap;html=1;fillColor=#ffff88;strokeColor=#6C727A;opacity=80;" parent="1" vertex="1">
          <mxGeometry x="921.25" y="622.5" width="120" height="35" as="geometry" />
        </mxCell>
        <mxCell id="O9PJK0Ftn6C582rbbvPH-207" value="" style="rounded=0;whiteSpace=wrap;html=1;fillColor=#ffff88;strokeColor=#82B366;opacity=80;gradientColor=#C3E8C4;gradientDirection=south;" parent="1" vertex="1">
          <mxGeometry x="1010" y="667" width="120" height="39.25" as="geometry" />
        </mxCell>
        <mxCell id="O9PJK0Ftn6C582rbbvPH-208" value="" style="rounded=0;whiteSpace=wrap;html=1;fillColor=#ffff88;strokeColor=#6C727A;opacity=80;direction=south;" parent="1" vertex="1">
          <mxGeometry x="939" y="417.5" width="35" height="72.5" as="geometry" />
        </mxCell>
        <mxCell id="O9PJK0Ftn6C582rbbvPH-209" value="" style="rounded=0;whiteSpace=wrap;html=1;fillColor=#ffff88;strokeColor=#473A3A;opacity=80;gradientColor=#FFE0E6;gradientDirection=west;" parent="1" vertex="1">
          <mxGeometry x="826.87" y="372.5" width="66.25" height="35" as="geometry" />
        </mxCell>
        <mxCell id="O9PJK0Ftn6C582rbbvPH-210" value="" style="rounded=0;whiteSpace=wrap;html=1;fillColor=#ffff88;strokeColor=#6C727A;opacity=80;direction=west;" parent="1" vertex="1">
          <mxGeometry x="865" y="452" width="61.01" height="39" as="geometry" />
        </mxCell>
        <mxCell id="O9PJK0Ftn6C582rbbvPH-211" value="" style="rounded=0;whiteSpace=wrap;html=1;fillColor=#ffff88;strokeColor=#6C727A;opacity=80;" parent="1" vertex="1">
          <mxGeometry x="865" y="502.5" width="40" height="35" as="geometry" />
        </mxCell>
        <mxCell id="O9PJK0Ftn6C582rbbvPH-212" value="" style="rounded=0;whiteSpace=wrap;html=1;fillColor=#ffff88;strokeColor=#6C727A;opacity=80;" parent="1" vertex="1">
          <mxGeometry x="910.75" y="372.5" width="66.25" height="35" as="geometry" />
        </mxCell>
        <mxCell id="O9PJK0Ftn6C582rbbvPH-213" value="" style="endArrow=none;html=1;rounded=0;strokeWidth=3;strokeColor=#5C0000;opacity=40;entryX=0;entryY=0.5;entryDx=0;entryDy=0;exitX=0.997;exitY=0.556;exitDx=0;exitDy=0;exitPerimeter=0;" parent="1" source="O9PJK0Ftn6C582rbbvPH-187" edge="1">
          <mxGeometry width="50" height="50" relative="1" as="geometry">
            <mxPoint x="230" y="382" as="sourcePoint" />
            <mxPoint x="240" y="382.185" as="targetPoint" />
          </mxGeometry>
        </mxCell>
        <mxCell id="O9PJK0Ftn6C582rbbvPH-214" value="" style="endArrow=none;html=1;rounded=0;strokeWidth=3;strokeColor=#5C0000;opacity=40;entryX=0;entryY=0.5;entryDx=0;entryDy=0;exitX=1;exitY=0.5;exitDx=0;exitDy=0;" parent="1" source="O9PJK0Ftn6C582rbbvPH-109" target="O9PJK0Ftn6C582rbbvPH-110" edge="1">
          <mxGeometry width="50" height="50" relative="1" as="geometry">
            <mxPoint x="300" y="382.09" as="sourcePoint" />
            <mxPoint x="310" y="382.275" as="targetPoint" />
          </mxGeometry>
        </mxCell>
        <mxCell id="O9PJK0Ftn6C582rbbvPH-215" value="" style="endArrow=none;html=1;rounded=0;strokeWidth=3;strokeColor=#5C0000;opacity=40;exitX=1;exitY=0.5;exitDx=0;exitDy=0;entryX=0.002;entryY=0.345;entryDx=0;entryDy=0;entryPerimeter=0;" parent="1" source="O9PJK0Ftn6C582rbbvPH-110" target="O9PJK0Ftn6C582rbbvPH-34" edge="1">
          <mxGeometry width="50" height="50" relative="1" as="geometry">
            <mxPoint x="380" y="382.14" as="sourcePoint" />
            <mxPoint x="400" y="382" as="targetPoint" />
          </mxGeometry>
        </mxCell>
        <mxCell id="O9PJK0Ftn6C582rbbvPH-216" value="" style="endArrow=none;html=1;rounded=0;strokeWidth=3;strokeColor=#5C0000;opacity=40;exitX=0.5;exitY=1;exitDx=0;exitDy=0;entryX=0.5;entryY=0;entryDx=0;entryDy=0;" parent="1" source="O9PJK0Ftn6C582rbbvPH-157" target="O9PJK0Ftn6C582rbbvPH-187" edge="1">
          <mxGeometry width="50" height="50" relative="1" as="geometry">
            <mxPoint x="190" y="350" as="sourcePoint" />
            <mxPoint x="220" y="350" as="targetPoint" />
          </mxGeometry>
        </mxCell>
        <mxCell id="O9PJK0Ftn6C582rbbvPH-217" value="" style="endArrow=none;html=1;rounded=0;strokeWidth=3;strokeColor=#5C0000;opacity=40;exitX=0.5;exitY=1;exitDx=0;exitDy=0;" parent="1" source="O9PJK0Ftn6C582rbbvPH-187" edge="1">
          <mxGeometry width="50" height="50" relative="1" as="geometry">
            <mxPoint x="199.94" y="402" as="sourcePoint" />
            <mxPoint x="200" y="410" as="targetPoint" />
          </mxGeometry>
        </mxCell>
        <mxCell id="O9PJK0Ftn6C582rbbvPH-218" value="" style="endArrow=none;html=1;rounded=0;strokeWidth=3;strokeColor=#5C0000;opacity=40;exitX=0;exitY=0.25;exitDx=0;exitDy=0;entryX=1.003;entryY=0.036;entryDx=0;entryDy=0;entryPerimeter=0;" parent="1" source="O9PJK0Ftn6C582rbbvPH-104" target="O9PJK0Ftn6C582rbbvPH-106" edge="1">
          <mxGeometry width="50" height="50" relative="1" as="geometry">
            <mxPoint x="199.94" y="517" as="sourcePoint" />
            <mxPoint x="200" y="530" as="targetPoint" />
          </mxGeometry>
        </mxCell>
        <mxCell id="O9PJK0Ftn6C582rbbvPH-219" value="" style="endArrow=none;html=1;rounded=0;strokeWidth=3;strokeColor=#5C0000;opacity=40;exitX=1;exitY=0.667;exitDx=0;exitDy=0;entryX=0;entryY=0.5;entryDx=0;entryDy=0;exitPerimeter=0;" parent="1" source="O9PJK0Ftn6C582rbbvPH-104" target="O9PJK0Ftn6C582rbbvPH-108" edge="1">
          <mxGeometry width="50" height="50" relative="1" as="geometry">
            <mxPoint x="240" y="485" as="sourcePoint" />
            <mxPoint x="240" y="495" as="targetPoint" />
          </mxGeometry>
        </mxCell>
        <mxCell id="O9PJK0Ftn6C582rbbvPH-220" value="" style="endArrow=none;html=1;rounded=0;strokeWidth=3;strokeColor=#5C0000;opacity=40;entryX=0.5;entryY=0;entryDx=0;entryDy=0;" parent="1" target="O9PJK0Ftn6C582rbbvPH-105" edge="1">
          <mxGeometry width="50" height="50" relative="1" as="geometry">
            <mxPoint x="300" y="500" as="sourcePoint" />
            <mxPoint x="322.5" y="504.88" as="targetPoint" />
          </mxGeometry>
        </mxCell>
        <mxCell id="O9PJK0Ftn6C582rbbvPH-221" value="" style="endArrow=none;html=1;rounded=0;strokeWidth=3;strokeColor=#5C0000;opacity=40;exitX=1.003;exitY=0.41;exitDx=0;exitDy=0;entryX=-0.001;entryY=0.841;entryDx=0;entryDy=0;entryPerimeter=0;exitPerimeter=0;" parent="1" source="O9PJK0Ftn6C582rbbvPH-112" target="O9PJK0Ftn6C582rbbvPH-107" edge="1">
          <mxGeometry width="50" height="50" relative="1" as="geometry">
            <mxPoint x="210" y="525" as="sourcePoint" />
            <mxPoint x="210" y="535" as="targetPoint" />
          </mxGeometry>
        </mxCell>
        <mxCell id="O9PJK0Ftn6C582rbbvPH-223" value="" style="endArrow=none;html=1;rounded=0;strokeWidth=3;strokeColor=#5C0000;opacity=40;exitX=0;exitY=0.5;exitDx=0;exitDy=0;entryX=0.999;entryY=0.344;entryDx=0;entryDy=0;entryPerimeter=0;" parent="1" source="O9PJK0Ftn6C582rbbvPH-112" target="O9PJK0Ftn6C582rbbvPH-103" edge="1">
          <mxGeometry width="50" height="50" relative="1" as="geometry">
            <mxPoint x="155" y="556" as="sourcePoint" />
            <mxPoint x="155" y="548" as="targetPoint" />
          </mxGeometry>
        </mxCell>
        <mxCell id="O9PJK0Ftn6C582rbbvPH-224" value="" style="endArrow=none;html=1;rounded=0;strokeWidth=3;strokeColor=#5C0000;opacity=40;exitX=0.004;exitY=0.91;exitDx=0;exitDy=0;entryX=1.004;entryY=0.074;entryDx=0;entryDy=0;entryPerimeter=0;exitPerimeter=0;" parent="1" source="O9PJK0Ftn6C582rbbvPH-106" target="O9PJK0Ftn6C582rbbvPH-103" edge="1">
          <mxGeometry width="50" height="50" relative="1" as="geometry">
            <mxPoint x="130" y="568" as="sourcePoint" />
            <mxPoint x="120" y="568" as="targetPoint" />
          </mxGeometry>
        </mxCell>
        <mxCell id="O9PJK0Ftn6C582rbbvPH-226" value="" style="endArrow=none;html=1;rounded=0;strokeWidth=3;strokeColor=#5C0000;opacity=40;exitX=0.378;exitY=0.999;exitDx=0;exitDy=0;entryX=0.75;entryY=0;entryDx=0;entryDy=0;exitPerimeter=0;" parent="1" source="O9PJK0Ftn6C582rbbvPH-107" target="O9PJK0Ftn6C582rbbvPH-113" edge="1">
          <mxGeometry width="50" height="50" relative="1" as="geometry">
            <mxPoint x="188" y="580" as="sourcePoint" />
            <mxPoint x="188" y="590" as="targetPoint" />
          </mxGeometry>
        </mxCell>
        <mxCell id="O9PJK0Ftn6C582rbbvPH-227" value="" style="endArrow=none;html=1;rounded=0;strokeWidth=3;strokeColor=#5C0000;opacity=40;exitX=1;exitY=0.5;exitDx=0;exitDy=0;entryX=-0.001;entryY=0.266;entryDx=0;entryDy=0;entryPerimeter=0;" parent="1" source="O9PJK0Ftn6C582rbbvPH-107" target="O9PJK0Ftn6C582rbbvPH-105" edge="1">
          <mxGeometry width="50" height="50" relative="1" as="geometry">
            <mxPoint x="270" y="561" as="sourcePoint" />
            <mxPoint x="280" y="543" as="targetPoint" />
          </mxGeometry>
        </mxCell>
        <mxCell id="O9PJK0Ftn6C582rbbvPH-228" value="" style="endArrow=none;html=1;rounded=0;strokeWidth=3;strokeColor=#5C0000;opacity=40;exitX=0.849;exitY=1;exitDx=0;exitDy=0;entryX=0.162;entryY=-0.003;entryDx=0;entryDy=0;entryPerimeter=0;exitPerimeter=0;" parent="1" source="O9PJK0Ftn6C582rbbvPH-105" target="O9PJK0Ftn6C582rbbvPH-135" edge="1">
          <mxGeometry width="50" height="50" relative="1" as="geometry">
            <mxPoint x="320" y="639.94" as="sourcePoint" />
            <mxPoint x="330" y="639.94" as="targetPoint" />
          </mxGeometry>
        </mxCell>
        <mxCell id="O9PJK0Ftn6C582rbbvPH-230" value="" style="endArrow=none;html=1;rounded=0;strokeWidth=3;strokeColor=#5C0000;opacity=40;exitX=0;exitY=0.5;exitDx=0;exitDy=0;" parent="1" source="O9PJK0Ftn6C582rbbvPH-136" edge="1">
          <mxGeometry width="50" height="50" relative="1" as="geometry">
            <mxPoint x="347.03451612903234" y="632.5" as="sourcePoint" />
            <mxPoint x="320" y="620" as="targetPoint" />
          </mxGeometry>
        </mxCell>
        <mxCell id="O9PJK0Ftn6C582rbbvPH-231" value="" style="endArrow=none;html=1;rounded=0;strokeWidth=3;strokeColor=#874300;opacity=40;exitX=0.5;exitY=1;exitDx=0;exitDy=0;entryX=0.5;entryY=0;entryDx=0;entryDy=0;" parent="1" source="O9PJK0Ftn6C582rbbvPH-135" target="O9PJK0Ftn6C582rbbvPH-114" edge="1">
          <mxGeometry width="50" height="50" relative="1" as="geometry">
            <mxPoint x="324.95" y="705" as="sourcePoint" />
            <mxPoint x="324.95" y="715" as="targetPoint" />
          </mxGeometry>
        </mxCell>
        <mxCell id="O9PJK0Ftn6C582rbbvPH-232" value="" style="endArrow=none;html=1;rounded=0;strokeWidth=3;strokeColor=#874300;opacity=40;entryX=0.157;entryY=0.001;entryDx=0;entryDy=0;entryPerimeter=0;exitX=0.318;exitY=0.996;exitDx=0;exitDy=0;exitPerimeter=0;" parent="1" source="O9PJK0Ftn6C582rbbvPH-114" target="O9PJK0Ftn6C582rbbvPH-115" edge="1">
          <mxGeometry width="50" height="50" relative="1" as="geometry">
            <mxPoint x="298" y="746" as="sourcePoint" />
            <mxPoint x="304.95" y="755" as="targetPoint" />
          </mxGeometry>
        </mxCell>
        <mxCell id="O9PJK0Ftn6C582rbbvPH-234" value="" style="endArrow=none;html=1;rounded=0;strokeWidth=3;strokeColor=#874300;opacity=40;entryX=0.577;entryY=0.002;entryDx=0;entryDy=0;entryPerimeter=0;exitX=0.5;exitY=1;exitDx=0;exitDy=0;" parent="1" source="O9PJK0Ftn6C582rbbvPH-115" target="O9PJK0Ftn6C582rbbvPH-116" edge="1">
          <mxGeometry width="50" height="50" relative="1" as="geometry">
            <mxPoint x="325" y="778" as="sourcePoint" />
            <mxPoint x="324.93" y="785.25" as="targetPoint" />
          </mxGeometry>
        </mxCell>
        <mxCell id="O9PJK0Ftn6C582rbbvPH-235" value="" style="rounded=0;whiteSpace=wrap;html=1;fillColor=#cce5ff;strokeColor=#573441;opacity=60;direction=south;gradientColor=#FFECE3;gradientDirection=east;" parent="1" vertex="1">
          <mxGeometry x="592.5" y="321" width="30" height="48" as="geometry" />
        </mxCell>
        <mxCell id="O9PJK0Ftn6C582rbbvPH-236" value="" style="endArrow=none;html=1;rounded=0;entryX=0.521;entryY=0;entryDx=0;entryDy=0;strokeWidth=3;strokeColor=#FFCCCC;exitX=0.5;exitY=1;exitDx=0;exitDy=0;entryPerimeter=0;" parent="1" source="O9PJK0Ftn6C582rbbvPH-194" target="O9PJK0Ftn6C582rbbvPH-36" edge="1">
          <mxGeometry width="50" height="50" relative="1" as="geometry">
            <mxPoint x="476" y="379.29" as="sourcePoint" />
            <mxPoint x="486" y="379.29" as="targetPoint" />
          </mxGeometry>
        </mxCell>
        <mxCell id="O9PJK0Ftn6C582rbbvPH-237" value="" style="endArrow=none;html=1;rounded=0;exitX=1;exitY=0.5;exitDx=0;exitDy=0;strokeWidth=3;strokeColor=#FFCCCC;entryX=0.95;entryY=0.002;entryDx=0;entryDy=0;entryPerimeter=0;" parent="1" source="O9PJK0Ftn6C582rbbvPH-235" target="O9PJK0Ftn6C582rbbvPH-31" edge="1">
          <mxGeometry width="50" height="50" relative="1" as="geometry">
            <mxPoint x="601.25" y="375" as="sourcePoint" />
            <mxPoint x="611.25" y="375" as="targetPoint" />
          </mxGeometry>
        </mxCell>
        <mxCell id="O9PJK0Ftn6C582rbbvPH-238" value="" style="rounded=0;whiteSpace=wrap;html=1;fillColor=#FFADF7;opacity=50;shadow=1;" parent="1" vertex="1">
          <mxGeometry x="1002.5" y="537" width="58" height="66.75" as="geometry" />
        </mxCell>
        <mxCell id="O9PJK0Ftn6C582rbbvPH-239" value="" style="rounded=0;whiteSpace=wrap;html=1;fillColor=#FFADF7;opacity=40;" parent="1" vertex="1">
          <mxGeometry x="1002.5" y="510" width="58" height="22" as="geometry" />
        </mxCell>
        <mxCell id="O9PJK0Ftn6C582rbbvPH-240" value="" style="rounded=0;whiteSpace=wrap;html=1;fillColor=#FFADF7;opacity=40;" parent="1" vertex="1">
          <mxGeometry x="966" y="520" width="28" height="59" as="geometry" />
        </mxCell>
        <mxCell id="O9PJK0Ftn6C582rbbvPH-241" value="" style="rounded=0;whiteSpace=wrap;html=1;fillColor=#FFADF7;opacity=40;" parent="1" vertex="1">
          <mxGeometry x="1070" y="521" width="28" height="59" as="geometry" />
        </mxCell>
        <mxCell id="O9PJK0Ftn6C582rbbvPH-242" value="" style="rounded=0;whiteSpace=wrap;html=1;fillColor=#FFADF7;opacity=40;" parent="1" vertex="1">
          <mxGeometry x="930" y="544.75" width="28" height="59" as="geometry" />
        </mxCell>
        <mxCell id="O9PJK0Ftn6C582rbbvPH-243" value="" style="rounded=0;whiteSpace=wrap;html=1;fillColor=#FFADF7;opacity=40;" parent="1" vertex="1">
          <mxGeometry x="1106" y="546" width="28" height="59" as="geometry" />
        </mxCell>
        <mxCell id="O9PJK0Ftn6C582rbbvPH-244" value="" style="rounded=0;whiteSpace=wrap;html=1;fillColor=#FFADF7;opacity=40;" parent="1" vertex="1">
          <mxGeometry x="1070" y="589" width="28" height="16" as="geometry" />
        </mxCell>
        <mxCell id="O9PJK0Ftn6C582rbbvPH-245" value="" style="rounded=0;whiteSpace=wrap;html=1;fillColor=#FFADF7;opacity=40;" parent="1" vertex="1">
          <mxGeometry x="966" y="587.75" width="28" height="16" as="geometry" />
        </mxCell>
        <mxCell id="O9PJK0Ftn6C582rbbvPH-95" value="" style="ellipse;shape=doubleEllipse;whiteSpace=wrap;html=1;aspect=fixed;fillColor=none;" parent="1" vertex="1">
          <mxGeometry x="1025.25" y="585" width="12.5" height="12.5" as="geometry" />
        </mxCell>
        <mxCell id="O9PJK0Ftn6C582rbbvPH-90" value="the Sainte-Chapelle vibes" style="text;html=1;align=center;verticalAlign=middle;whiteSpace=wrap;rounded=0;fontSize=8;" parent="1" vertex="1">
          <mxGeometry x="1070.5" y="497" width="75" height="30" as="geometry" />
        </mxCell>
        <mxCell id="O9PJK0Ftn6C582rbbvPH-246" value="" style="endArrow=none;html=1;rounded=0;entryX=0.999;entryY=0.436;entryDx=0;entryDy=0;strokeWidth=3;strokeColor=#FFCCCC;exitX=0;exitY=0.5;exitDx=0;exitDy=0;entryPerimeter=0;" parent="1" source="O9PJK0Ftn6C582rbbvPH-209" target="O9PJK0Ftn6C582rbbvPH-37" edge="1">
          <mxGeometry width="50" height="50" relative="1" as="geometry">
            <mxPoint x="846" y="394.37" as="sourcePoint" />
            <mxPoint x="816" y="394.37" as="targetPoint" />
          </mxGeometry>
        </mxCell>
        <mxCell id="O9PJK0Ftn6C582rbbvPH-247" value="" style="endArrow=none;html=1;rounded=0;entryX=1;entryY=0.5;entryDx=0;entryDy=0;strokeWidth=3;strokeColor=#FFCCCC;exitX=0.613;exitY=0.009;exitDx=0;exitDy=0;exitPerimeter=0;" parent="1" source="O9PJK0Ftn6C582rbbvPH-37" target="O9PJK0Ftn6C582rbbvPH-195" edge="1">
          <mxGeometry width="50" height="50" relative="1" as="geometry">
            <mxPoint x="767" y="372" as="sourcePoint" />
            <mxPoint x="820" y="400" as="targetPoint" />
          </mxGeometry>
        </mxCell>
        <mxCell id="O9PJK0Ftn6C582rbbvPH-248" value="" style="endArrow=none;html=1;rounded=0;exitX=1;exitY=0.5;exitDx=0;exitDy=0;entryX=-0.002;entryY=0.703;entryDx=0;entryDy=0;strokeWidth=3;strokeColor=#FFCCCC;entryPerimeter=0;" parent="1" source="O9PJK0Ftn6C582rbbvPH-136" target="O9PJK0Ftn6C582rbbvPH-27" edge="1">
          <mxGeometry width="50" height="50" relative="1" as="geometry">
            <mxPoint x="440" y="575" as="sourcePoint" />
            <mxPoint x="440" y="595" as="targetPoint" />
          </mxGeometry>
        </mxCell>
        <mxCell id="O9PJK0Ftn6C582rbbvPH-249" value="" style="endArrow=none;html=1;rounded=0;strokeWidth=3;strokeColor=#874300;opacity=40;entryX=0;entryY=0.376;entryDx=0;entryDy=0;entryPerimeter=0;exitX=1;exitY=0.5;exitDx=0;exitDy=0;" parent="1" source="O9PJK0Ftn6C582rbbvPH-115" target="O9PJK0Ftn6C582rbbvPH-117" edge="1">
          <mxGeometry width="50" height="50" relative="1" as="geometry">
            <mxPoint x="335" y="788" as="sourcePoint" />
            <mxPoint x="335" y="795" as="targetPoint" />
          </mxGeometry>
        </mxCell>
        <mxCell id="O9PJK0Ftn6C582rbbvPH-253" value="s" style="text;html=1;align=center;verticalAlign=middle;whiteSpace=wrap;rounded=0;fontSize=6;" parent="1" vertex="1">
          <mxGeometry x="604" y="373" width="7" height="6" as="geometry" />
        </mxCell>
        <mxCell id="O9PJK0Ftn6C582rbbvPH-254" value="" style="endArrow=none;html=1;rounded=0;strokeWidth=3;strokeColor=#874300;opacity=40;entryX=0;entryY=0.939;entryDx=0;entryDy=0;exitX=1.002;exitY=0.155;exitDx=0;exitDy=0;exitPerimeter=0;entryPerimeter=0;" parent="1" source="O9PJK0Ftn6C582rbbvPH-114" target="O9PJK0Ftn6C582rbbvPH-120" edge="1">
          <mxGeometry width="50" height="50" relative="1" as="geometry">
            <mxPoint x="362" y="756" as="sourcePoint" />
            <mxPoint x="362" y="765" as="targetPoint" />
          </mxGeometry>
        </mxCell>
        <mxCell id="O9PJK0Ftn6C582rbbvPH-256" value="" style="endArrow=none;html=1;rounded=0;strokeWidth=3;strokeColor=#874300;opacity=40;exitX=0.998;exitY=0.602;exitDx=0;exitDy=0;exitPerimeter=0;entryX=-0.003;entryY=0.15;entryDx=0;entryDy=0;entryPerimeter=0;" parent="1" source="O9PJK0Ftn6C582rbbvPH-120" target="O9PJK0Ftn6C582rbbvPH-119" edge="1">
          <mxGeometry width="50" height="50" relative="1" as="geometry">
            <mxPoint x="515" y="709.29" as="sourcePoint" />
            <mxPoint x="525" y="709" as="targetPoint" />
          </mxGeometry>
        </mxCell>
        <mxCell id="O9PJK0Ftn6C582rbbvPH-257" value="" style="endArrow=none;html=1;rounded=0;strokeWidth=3;strokeColor=#874300;opacity=40;exitX=0.998;exitY=0.602;exitDx=0;exitDy=0;exitPerimeter=0;entryX=0;entryY=0.057;entryDx=0;entryDy=0;entryPerimeter=0;" parent="1" edge="1">
          <mxGeometry width="50" height="50" relative="1" as="geometry">
            <mxPoint x="575" y="712" as="sourcePoint" />
            <mxPoint x="585" y="712" as="targetPoint" />
          </mxGeometry>
        </mxCell>
        <mxCell id="O9PJK0Ftn6C582rbbvPH-260" value="" style="endArrow=none;html=1;rounded=0;strokeWidth=3;strokeColor=#874300;opacity=40;exitX=0.25;exitY=1;exitDx=0;exitDy=0;entryX=0.923;entryY=-0.008;entryDx=0;entryDy=0;entryPerimeter=0;" parent="1" source="O9PJK0Ftn6C582rbbvPH-119" target="O9PJK0Ftn6C582rbbvPH-117" edge="1">
          <mxGeometry width="50" height="50" relative="1" as="geometry">
            <mxPoint x="540" y="750" as="sourcePoint" />
            <mxPoint x="550" y="750" as="targetPoint" />
          </mxGeometry>
        </mxCell>
        <mxCell id="O9PJK0Ftn6C582rbbvPH-262" value="" style="endArrow=none;html=1;rounded=0;strokeWidth=3;strokeColor=#874300;opacity=40;exitX=-0.004;exitY=0.287;exitDx=0;exitDy=0;entryX=1;entryY=0.5;entryDx=0;entryDy=0;exitPerimeter=0;" parent="1" source="O9PJK0Ftn6C582rbbvPH-125" target="O9PJK0Ftn6C582rbbvPH-121" edge="1">
          <mxGeometry width="50" height="50" relative="1" as="geometry">
            <mxPoint x="647" y="761.11" as="sourcePoint" />
            <mxPoint x="638" y="761.11" as="targetPoint" />
          </mxGeometry>
        </mxCell>
        <mxCell id="O9PJK0Ftn6C582rbbvPH-264" value="" style="rounded=0;whiteSpace=wrap;html=1;fillColor=#C3E8C4;strokeColor=#82b366;gradientColor=#874300;gradientDirection=west;opacity=80;" parent="1" vertex="1">
          <mxGeometry x="737" y="768.5" width="71" height="30" as="geometry" />
        </mxCell>
        <mxCell id="O9PJK0Ftn6C582rbbvPH-265" value="" style="rounded=0;whiteSpace=wrap;html=1;fillColor=#C3E8C4;strokeColor=#82b366;gradientColor=#874300;gradientDirection=west;opacity=80;" parent="1" vertex="1">
          <mxGeometry x="756" y="695" width="44" height="30" as="geometry" />
        </mxCell>
        <mxCell id="O9PJK0Ftn6C582rbbvPH-266" value="" style="endArrow=none;html=1;rounded=0;strokeWidth=3;strokeColor=#874300;opacity=40;exitX=0.902;exitY=1.011;exitDx=0;exitDy=0;exitPerimeter=0;entryX=0.5;entryY=0;entryDx=0;entryDy=0;" parent="1" source="O9PJK0Ftn6C582rbbvPH-123" target="O9PJK0Ftn6C582rbbvPH-125" edge="1">
          <mxGeometry width="50" height="50" relative="1" as="geometry">
            <mxPoint x="682" y="785" as="sourcePoint" />
            <mxPoint x="671" y="785" as="targetPoint" />
          </mxGeometry>
        </mxCell>
        <mxCell id="O9PJK0Ftn6C582rbbvPH-267" value="" style="endArrow=none;html=1;rounded=0;strokeWidth=3;strokeColor=#874300;opacity=40;exitX=-0.003;exitY=0.462;exitDx=0;exitDy=0;entryX=1;entryY=0.5;entryDx=0;entryDy=0;exitPerimeter=0;" parent="1" source="O9PJK0Ftn6C582rbbvPH-264" target="O9PJK0Ftn6C582rbbvPH-125" edge="1">
          <mxGeometry width="50" height="50" relative="1" as="geometry">
            <mxPoint x="707" y="765" as="sourcePoint" />
            <mxPoint x="708" y="775" as="targetPoint" />
          </mxGeometry>
        </mxCell>
        <mxCell id="O9PJK0Ftn6C582rbbvPH-268" value="" style="endArrow=none;html=1;rounded=0;strokeWidth=3;strokeColor=#874300;opacity=40;exitX=1;exitY=0.5;exitDx=0;exitDy=0;entryX=0.005;entryY=0.472;entryDx=0;entryDy=0;entryPerimeter=0;" parent="1" source="O9PJK0Ftn6C582rbbvPH-118" target="O9PJK0Ftn6C582rbbvPH-265" edge="1">
          <mxGeometry width="50" height="50" relative="1" as="geometry">
            <mxPoint x="745" y="725" as="sourcePoint" />
            <mxPoint x="731" y="726" as="targetPoint" />
          </mxGeometry>
        </mxCell>
        <mxCell id="O9PJK0Ftn6C582rbbvPH-269" value="" style="endArrow=none;html=1;rounded=0;strokeWidth=3;strokeColor=#874300;opacity=40;exitX=0.115;exitY=0.017;exitDx=0;exitDy=0;exitPerimeter=0;entryX=0.198;entryY=1.014;entryDx=0;entryDy=0;entryPerimeter=0;" parent="1" source="O9PJK0Ftn6C582rbbvPH-123" target="O9PJK0Ftn6C582rbbvPH-118" edge="1">
          <mxGeometry width="50" height="50" relative="1" as="geometry">
            <mxPoint x="585" y="722" as="sourcePoint" />
            <mxPoint x="616" y="724" as="targetPoint" />
          </mxGeometry>
        </mxCell>
        <mxCell id="O9PJK0Ftn6C582rbbvPH-270" value="" style="endArrow=none;html=1;rounded=0;strokeWidth=3;strokeColor=#82B366;exitX=1;exitY=0.5;exitDx=0;exitDy=0;entryX=0;entryY=0.666;entryDx=0;entryDy=0;entryPerimeter=0;" parent="1" source="O9PJK0Ftn6C582rbbvPH-265" target="O9PJK0Ftn6C582rbbvPH-131" edge="1">
          <mxGeometry width="50" height="50" relative="1" as="geometry">
            <mxPoint x="808" y="726.12" as="sourcePoint" />
            <mxPoint x="819" y="726.12" as="targetPoint" />
          </mxGeometry>
        </mxCell>
        <mxCell id="O9PJK0Ftn6C582rbbvPH-271" value="" style="endArrow=none;html=1;rounded=0;strokeWidth=3;strokeColor=#82B366;exitX=1;exitY=0.5;exitDx=0;exitDy=0;entryX=0;entryY=0.25;entryDx=0;entryDy=0;" parent="1" source="O9PJK0Ftn6C582rbbvPH-264" target="O9PJK0Ftn6C582rbbvPH-127" edge="1">
          <mxGeometry width="50" height="50" relative="1" as="geometry">
            <mxPoint x="815" y="786.5" as="sourcePoint" />
            <mxPoint x="825" y="787" as="targetPoint" />
          </mxGeometry>
        </mxCell>
        <mxCell id="O9PJK0Ftn6C582rbbvPH-272" value="" style="endArrow=none;html=1;rounded=0;strokeWidth=3;strokeColor=#82B366;exitX=0.75;exitY=1;exitDx=0;exitDy=0;entryX=0.945;entryY=0.002;entryDx=0;entryDy=0;entryPerimeter=0;" parent="1" source="O9PJK0Ftn6C582rbbvPH-128" target="O9PJK0Ftn6C582rbbvPH-127" edge="1">
          <mxGeometry width="50" height="50" relative="1" as="geometry">
            <mxPoint x="994" y="769.8900000000001" as="sourcePoint" />
            <mxPoint x="1011" y="769.8900000000001" as="targetPoint" />
          </mxGeometry>
        </mxCell>
        <mxCell id="O9PJK0Ftn6C582rbbvPH-273" value="" style="endArrow=none;html=1;rounded=0;strokeWidth=3;strokeColor=#82B366;exitX=0.344;exitY=0.996;exitDx=0;exitDy=0;exitPerimeter=0;entryX=0.066;entryY=-0.004;entryDx=0;entryDy=0;entryPerimeter=0;" parent="1" source="O9PJK0Ftn6C582rbbvPH-131" target="O9PJK0Ftn6C582rbbvPH-128" edge="1">
          <mxGeometry width="50" height="50" relative="1" as="geometry">
            <mxPoint x="872" y="720" as="sourcePoint" />
            <mxPoint x="872" y="731" as="targetPoint" />
          </mxGeometry>
        </mxCell>
        <mxCell id="O9PJK0Ftn6C582rbbvPH-275" value="" style="endArrow=none;html=1;rounded=0;strokeWidth=3;strokeColor=#82B366;exitX=0;exitY=0.778;exitDx=0;exitDy=0;entryX=1;entryY=0.25;entryDx=0;entryDy=0;exitPerimeter=0;" parent="1" source="O9PJK0Ftn6C582rbbvPH-207" target="O9PJK0Ftn6C582rbbvPH-131" edge="1">
          <mxGeometry width="50" height="50" relative="1" as="geometry">
            <mxPoint x="882" y="730" as="sourcePoint" />
            <mxPoint x="882" y="741" as="targetPoint" />
          </mxGeometry>
        </mxCell>
        <mxCell id="O9PJK0Ftn6C582rbbvPH-276" value="" style="endArrow=none;html=1;rounded=0;strokeWidth=3;strokeColor=#82B366;exitX=0;exitY=0.43;exitDx=0;exitDy=0;entryX=1;entryY=0.5;entryDx=0;entryDy=0;exitPerimeter=0;" parent="1" source="O9PJK0Ftn6C582rbbvPH-130" target="O9PJK0Ftn6C582rbbvPH-128" edge="1">
          <mxGeometry width="50" height="50" relative="1" as="geometry">
            <mxPoint x="1057.75" y="740" as="sourcePoint" />
            <mxPoint x="1037.75" y="740" as="targetPoint" />
          </mxGeometry>
        </mxCell>
        <mxCell id="O9PJK0Ftn6C582rbbvPH-277" value="" style="endArrow=none;html=1;rounded=0;strokeWidth=3;strokeColor=#82B366;exitX=-0.002;exitY=0.209;exitDx=0;exitDy=0;entryX=0.998;entryY=0.878;entryDx=0;entryDy=0;entryPerimeter=0;exitPerimeter=0;" parent="1" source="O9PJK0Ftn6C582rbbvPH-129" target="O9PJK0Ftn6C582rbbvPH-207" edge="1">
          <mxGeometry width="50" height="50" relative="1" as="geometry">
            <mxPoint x="1065" y="756" as="sourcePoint" />
            <mxPoint x="1131" y="704" as="targetPoint" />
          </mxGeometry>
        </mxCell>
        <mxCell id="O9PJK0Ftn6C582rbbvPH-278" value="" style="endArrow=none;html=1;rounded=0;strokeWidth=3;strokeColor=#82B366;exitX=0;exitY=0.5;exitDx=0;exitDy=0;entryX=1;entryY=0.5;entryDx=0;entryDy=0;" parent="1" source="O9PJK0Ftn6C582rbbvPH-132" target="O9PJK0Ftn6C582rbbvPH-281" edge="1">
          <mxGeometry width="50" height="50" relative="1" as="geometry">
            <mxPoint x="1141.25" y="786.5" as="sourcePoint" />
            <mxPoint x="1126.25" y="786.5" as="targetPoint" />
          </mxGeometry>
        </mxCell>
        <mxCell id="O9PJK0Ftn6C582rbbvPH-279" value="" style="endArrow=none;html=1;rounded=0;strokeWidth=3;strokeColor=#82B366;entryX=0.25;entryY=1;entryDx=0;entryDy=0;exitX=0.875;exitY=-0.003;exitDx=0;exitDy=0;exitPerimeter=0;" parent="1" source="O9PJK0Ftn6C582rbbvPH-132" target="O9PJK0Ftn6C582rbbvPH-134" edge="1">
          <mxGeometry width="50" height="50" relative="1" as="geometry">
            <mxPoint x="1298" y="776" as="sourcePoint" />
            <mxPoint x="1293.75" y="768.5" as="targetPoint" />
          </mxGeometry>
        </mxCell>
        <mxCell id="O9PJK0Ftn6C582rbbvPH-280" value="" style="endArrow=none;html=1;rounded=0;strokeWidth=3;strokeColor=#82B366;entryX=1;entryY=0.5;entryDx=0;entryDy=0;exitX=0.001;exitY=0.256;exitDx=0;exitDy=0;exitPerimeter=0;" parent="1" source="O9PJK0Ftn6C582rbbvPH-134" target="O9PJK0Ftn6C582rbbvPH-129" edge="1">
          <mxGeometry width="50" height="50" relative="1" as="geometry">
            <mxPoint x="1308" y="786" as="sourcePoint" />
            <mxPoint x="1308" y="771" as="targetPoint" />
          </mxGeometry>
        </mxCell>
        <mxCell id="O9PJK0Ftn6C582rbbvPH-281" value="" style="rounded=0;whiteSpace=wrap;html=1;fillColor=#C3E8C4;strokeColor=#82b366;" parent="1" vertex="1">
          <mxGeometry x="1055" y="776.75" width="65" height="29.5" as="geometry" />
        </mxCell>
        <mxCell id="O9PJK0Ftn6C582rbbvPH-282" value="" style="endArrow=none;html=1;rounded=0;strokeWidth=3;strokeColor=#82B366;exitX=0.5;exitY=1;exitDx=0;exitDy=0;entryX=0.5;entryY=0;entryDx=0;entryDy=0;" parent="1" source="O9PJK0Ftn6C582rbbvPH-130" target="O9PJK0Ftn6C582rbbvPH-281" edge="1">
          <mxGeometry width="50" height="50" relative="1" as="geometry">
            <mxPoint x="1065" y="756" as="sourcePoint" />
            <mxPoint x="1050" y="756" as="targetPoint" />
          </mxGeometry>
        </mxCell>
        <mxCell id="O9PJK0Ftn6C582rbbvPH-285" value="" style="endArrow=none;html=1;rounded=0;strokeWidth=3;strokeColor=#6C727A;entryX=0.144;entryY=1.001;entryDx=0;entryDy=0;entryPerimeter=0;opacity=80;" parent="1" target="O9PJK0Ftn6C582rbbvPH-201" edge="1">
          <mxGeometry width="50" height="50" relative="1" as="geometry">
            <mxPoint x="1079" y="667" as="sourcePoint" />
            <mxPoint x="1105.45" y="660" as="targetPoint" />
          </mxGeometry>
        </mxCell>
        <mxCell id="O9PJK0Ftn6C582rbbvPH-287" value="" style="endArrow=none;html=1;rounded=0;strokeWidth=3;strokeColor=#6C727A;entryX=1;entryY=0.5;entryDx=0;entryDy=0;opacity=80;exitX=0.84;exitY=-0.006;exitDx=0;exitDy=0;exitPerimeter=0;" parent="1" source="O9PJK0Ftn6C582rbbvPH-201" target="O9PJK0Ftn6C582rbbvPH-197" edge="1">
          <mxGeometry width="50" height="50" relative="1" as="geometry">
            <mxPoint x="1186.25" y="615" as="sourcePoint" />
            <mxPoint x="1167.25" y="615" as="targetPoint" />
          </mxGeometry>
        </mxCell>
        <mxCell id="O9PJK0Ftn6C582rbbvPH-289" value="" style="endArrow=none;html=1;rounded=0;strokeWidth=3;strokeColor=#6C727A;entryX=0.835;entryY=-0.005;entryDx=0;entryDy=0;opacity=80;exitX=0;exitY=0.5;exitDx=0;exitDy=0;entryPerimeter=0;" parent="1" source="O9PJK0Ftn6C582rbbvPH-206" target="O9PJK0Ftn6C582rbbvPH-202" edge="1">
          <mxGeometry width="50" height="50" relative="1" as="geometry">
            <mxPoint x="1070" y="650" as="sourcePoint" />
            <mxPoint x="1051" y="650" as="targetPoint" />
          </mxGeometry>
        </mxCell>
        <mxCell id="O9PJK0Ftn6C582rbbvPH-290" value="" style="endArrow=none;html=1;rounded=0;strokeWidth=3;strokeColor=#6C727A;entryX=0.5;entryY=1;entryDx=0;entryDy=0;opacity=80;exitX=0;exitY=0.5;exitDx=0;exitDy=0;" parent="1" source="O9PJK0Ftn6C582rbbvPH-202" target="O9PJK0Ftn6C582rbbvPH-211" edge="1">
          <mxGeometry width="50" height="50" relative="1" as="geometry">
            <mxPoint x="901" y="534.9" as="sourcePoint" />
            <mxPoint x="885" y="534.9" as="targetPoint" />
          </mxGeometry>
        </mxCell>
        <mxCell id="O9PJK0Ftn6C582rbbvPH-291" value="" style="endArrow=none;html=1;rounded=0;strokeWidth=3;strokeColor=#6C727A;entryX=0.674;entryY=0.002;entryDx=0;entryDy=0;opacity=80;exitX=0.5;exitY=0;exitDx=0;exitDy=0;entryPerimeter=0;" parent="1" source="O9PJK0Ftn6C582rbbvPH-211" target="O9PJK0Ftn6C582rbbvPH-210" edge="1">
          <mxGeometry width="50" height="50" relative="1" as="geometry">
            <mxPoint x="885" y="503" as="sourcePoint" />
            <mxPoint x="885" y="491" as="targetPoint" />
          </mxGeometry>
        </mxCell>
        <mxCell id="O9PJK0Ftn6C582rbbvPH-292" value="" style="endArrow=none;html=1;rounded=0;strokeWidth=3;strokeColor=#6C727A;entryX=0;entryY=0.5;entryDx=0;entryDy=0;opacity=80;exitX=0.745;exitY=1;exitDx=0;exitDy=0;exitPerimeter=0;" parent="1" source="O9PJK0Ftn6C582rbbvPH-208" target="O9PJK0Ftn6C582rbbvPH-210" edge="1">
          <mxGeometry width="50" height="50" relative="1" as="geometry">
            <mxPoint x="933" y="491" as="sourcePoint" />
            <mxPoint x="933" y="479" as="targetPoint" />
          </mxGeometry>
        </mxCell>
        <mxCell id="O9PJK0Ftn6C582rbbvPH-293" value="" style="endArrow=none;html=1;rounded=0;strokeWidth=3;strokeColor=#6C727A;entryX=0;entryY=0.5;entryDx=0;entryDy=0;opacity=80;exitX=0.2;exitY=-0.003;exitDx=0;exitDy=0;exitPerimeter=0;" parent="1" source="O9PJK0Ftn6C582rbbvPH-208" target="O9PJK0Ftn6C582rbbvPH-351" edge="1">
          <mxGeometry width="50" height="50" relative="1" as="geometry">
            <mxPoint x="956.5" y="410" as="sourcePoint" />
            <mxPoint x="943.5" y="410" as="targetPoint" />
          </mxGeometry>
        </mxCell>
        <mxCell id="O9PJK0Ftn6C582rbbvPH-294" value="" style="endArrow=none;html=1;rounded=0;strokeWidth=3;strokeColor=#6C727A;entryX=0.771;entryY=-0.005;entryDx=0;entryDy=0;opacity=80;exitX=0;exitY=0.5;exitDx=0;exitDy=0;entryPerimeter=0;" parent="1" source="O9PJK0Ftn6C582rbbvPH-196" target="O9PJK0Ftn6C582rbbvPH-208" edge="1">
          <mxGeometry width="50" height="50" relative="1" as="geometry">
            <mxPoint x="949" y="482" as="sourcePoint" />
            <mxPoint x="936" y="482" as="targetPoint" />
          </mxGeometry>
        </mxCell>
        <mxCell id="O9PJK0Ftn6C582rbbvPH-296" value="" style="endArrow=none;html=1;rounded=0;strokeWidth=3;strokeColor=#6C727A;entryX=0.432;entryY=0;entryDx=0;entryDy=0;opacity=80;exitX=0.75;exitY=0;exitDx=0;exitDy=0;entryPerimeter=0;" parent="1" source="O9PJK0Ftn6C582rbbvPH-204" target="O9PJK0Ftn6C582rbbvPH-203" edge="1">
          <mxGeometry width="50" height="50" relative="1" as="geometry">
            <mxPoint x="1106" y="465" as="sourcePoint" />
            <mxPoint x="1093" y="465" as="targetPoint" />
          </mxGeometry>
        </mxCell>
        <mxCell id="O9PJK0Ftn6C582rbbvPH-297" value="" style="endArrow=none;html=1;rounded=0;strokeWidth=3;strokeColor=#6C727A;entryX=1;entryY=0.5;entryDx=0;entryDy=0;opacity=80;exitX=0;exitY=0.5;exitDx=0;exitDy=0;" parent="1" source="O9PJK0Ftn6C582rbbvPH-212" target="O9PJK0Ftn6C582rbbvPH-209" edge="1">
          <mxGeometry width="50" height="50" relative="1" as="geometry">
            <mxPoint x="967" y="428" as="sourcePoint" />
            <mxPoint x="966" y="418" as="targetPoint" />
          </mxGeometry>
        </mxCell>
        <mxCell id="O9PJK0Ftn6C582rbbvPH-298" value="" style="endArrow=none;html=1;rounded=0;strokeWidth=3;strokeColor=#6C727A;entryX=1;entryY=0.5;entryDx=0;entryDy=0;opacity=80;exitX=0;exitY=0.5;exitDx=0;exitDy=0;" parent="1" source="O9PJK0Ftn6C582rbbvPH-184" target="O9PJK0Ftn6C582rbbvPH-212" edge="1">
          <mxGeometry width="50" height="50" relative="1" as="geometry">
            <mxPoint x="921" y="400" as="sourcePoint" />
            <mxPoint x="903" y="400" as="targetPoint" />
          </mxGeometry>
        </mxCell>
        <mxCell id="O9PJK0Ftn6C582rbbvPH-299" value="" style="endArrow=none;html=1;rounded=0;strokeWidth=3;strokeColor=#6C727A;opacity=80;exitX=0;exitY=0.5;exitDx=0;exitDy=0;entryX=1;entryY=0.5;entryDx=0;entryDy=0;" parent="1" source="O9PJK0Ftn6C582rbbvPH-205" target="O9PJK0Ftn6C582rbbvPH-184" edge="1">
          <mxGeometry width="50" height="50" relative="1" as="geometry">
            <mxPoint x="1000" y="400" as="sourcePoint" />
            <mxPoint x="1110" y="391" as="targetPoint" />
          </mxGeometry>
        </mxCell>
        <mxCell id="O9PJK0Ftn6C582rbbvPH-300" value="" style="endArrow=none;html=1;rounded=0;strokeWidth=3;strokeColor=#6C727A;opacity=80;exitX=1;exitY=0.5;exitDx=0;exitDy=0;entryX=0.36;entryY=0;entryDx=0;entryDy=0;entryPerimeter=0;" parent="1" source="O9PJK0Ftn6C582rbbvPH-183" target="O9PJK0Ftn6C582rbbvPH-205" edge="1">
          <mxGeometry width="50" height="50" relative="1" as="geometry">
            <mxPoint x="1130" y="400" as="sourcePoint" />
            <mxPoint x="1120" y="400" as="targetPoint" />
          </mxGeometry>
        </mxCell>
        <mxCell id="O9PJK0Ftn6C582rbbvPH-302" value="" style="endArrow=none;html=1;rounded=0;strokeWidth=3;strokeColor=#6C727A;opacity=80;exitX=0.735;exitY=1.004;exitDx=0;exitDy=0;entryX=0.849;entryY=1.005;entryDx=0;entryDy=0;entryPerimeter=0;exitPerimeter=0;" parent="1" source="O9PJK0Ftn6C582rbbvPH-184" target="O9PJK0Ftn6C582rbbvPH-203" edge="1">
          <mxGeometry width="50" height="50" relative="1" as="geometry">
            <mxPoint x="1163" y="417" as="sourcePoint" />
            <mxPoint x="1163" y="427" as="targetPoint" />
          </mxGeometry>
        </mxCell>
        <mxCell id="O9PJK0Ftn6C582rbbvPH-303" value="" style="rounded=0;whiteSpace=wrap;html=1;fillColor=#ffff88;strokeColor=#6C727A;opacity=80;" parent="1" vertex="1">
          <mxGeometry x="1152.5" y="456" width="38" height="28" as="geometry" />
        </mxCell>
        <mxCell id="O9PJK0Ftn6C582rbbvPH-304" value="" style="endArrow=none;html=1;rounded=0;strokeWidth=3;strokeColor=#6C727A;opacity=80;exitX=0;exitY=0.5;exitDx=0;exitDy=0;" parent="1" source="O9PJK0Ftn6C582rbbvPH-303" edge="1">
          <mxGeometry width="50" height="50" relative="1" as="geometry">
            <mxPoint x="1151" y="470" as="sourcePoint" />
            <mxPoint x="1143" y="470" as="targetPoint" />
          </mxGeometry>
        </mxCell>
        <mxCell id="O9PJK0Ftn6C582rbbvPH-305" value="" style="endArrow=none;html=1;rounded=0;strokeWidth=3;strokeColor=#6C727A;opacity=80;entryX=0.5;entryY=1;entryDx=0;entryDy=0;exitX=0;exitY=0.5;exitDx=0;exitDy=0;" parent="1" source="O9PJK0Ftn6C582rbbvPH-197" target="O9PJK0Ftn6C582rbbvPH-303" edge="1">
          <mxGeometry width="50" height="50" relative="1" as="geometry">
            <mxPoint x="1171" y="489" as="sourcePoint" />
            <mxPoint x="1163" y="483.93" as="targetPoint" />
          </mxGeometry>
        </mxCell>
        <mxCell id="O9PJK0Ftn6C582rbbvPH-306" value="" style="endArrow=none;html=1;rounded=0;strokeWidth=3;strokeColor=#007FFF;entryX=1;entryY=0.5;entryDx=0;entryDy=0;exitX=-0.005;exitY=0.099;exitDx=0;exitDy=0;exitPerimeter=0;" parent="1" source="O9PJK0Ftn6C582rbbvPH-157" target="O9PJK0Ftn6C582rbbvPH-156" edge="1">
          <mxGeometry width="50" height="50" relative="1" as="geometry">
            <mxPoint x="182" y="273" as="sourcePoint" />
            <mxPoint x="210.87" y="272.25" as="targetPoint" />
          </mxGeometry>
        </mxCell>
        <mxCell id="O9PJK0Ftn6C582rbbvPH-307" value="" style="endArrow=none;html=1;rounded=0;strokeWidth=3;strokeColor=#007FFF;entryX=0.994;entryY=0.088;entryDx=0;entryDy=0;exitX=-0.002;exitY=0.474;exitDx=0;exitDy=0;exitPerimeter=0;entryPerimeter=0;" parent="1" source="O9PJK0Ftn6C582rbbvPH-153" target="O9PJK0Ftn6C582rbbvPH-157" edge="1">
          <mxGeometry width="50" height="50" relative="1" as="geometry">
            <mxPoint x="230" y="272.25" as="sourcePoint" />
            <mxPoint x="218" y="272.25" as="targetPoint" />
          </mxGeometry>
        </mxCell>
        <mxCell id="O9PJK0Ftn6C582rbbvPH-308" value="" style="endArrow=none;html=1;rounded=0;strokeWidth=3;strokeColor=#007FFF;entryX=0.5;entryY=0;entryDx=0;entryDy=0;exitX=0.129;exitY=1.001;exitDx=0;exitDy=0;exitPerimeter=0;" parent="1" source="O9PJK0Ftn6C582rbbvPH-158" target="O9PJK0Ftn6C582rbbvPH-156" edge="1">
          <mxGeometry width="50" height="50" relative="1" as="geometry">
            <mxPoint x="230" y="252.32999999999998" as="sourcePoint" />
            <mxPoint x="217" y="252.32999999999998" as="targetPoint" />
          </mxGeometry>
        </mxCell>
        <mxCell id="O9PJK0Ftn6C582rbbvPH-309" value="" style="endArrow=none;html=1;rounded=0;strokeWidth=3;strokeColor=#007FFF;entryX=0.557;entryY=0.001;entryDx=0;entryDy=0;exitX=0.5;exitY=1;exitDx=0;exitDy=0;entryPerimeter=0;" parent="1" source="O9PJK0Ftn6C582rbbvPH-159" target="O9PJK0Ftn6C582rbbvPH-158" edge="1">
          <mxGeometry width="50" height="50" relative="1" as="geometry">
            <mxPoint x="209.5" y="197.5" as="sourcePoint" />
            <mxPoint x="210.5" y="211.5" as="targetPoint" />
          </mxGeometry>
        </mxCell>
        <mxCell id="O9PJK0Ftn6C582rbbvPH-310" value="" style="endArrow=none;html=1;rounded=0;strokeWidth=3;strokeColor=#007FFF;exitX=0;exitY=0.25;exitDx=0;exitDy=0;entryX=1;entryY=0.699;entryDx=0;entryDy=0;entryPerimeter=0;" parent="1" source="O9PJK0Ftn6C582rbbvPH-159" target="O9PJK0Ftn6C582rbbvPH-155" edge="1">
          <mxGeometry width="50" height="50" relative="1" as="geometry">
            <mxPoint x="185" y="144" as="sourcePoint" />
            <mxPoint x="180" y="147" as="targetPoint" />
          </mxGeometry>
        </mxCell>
        <mxCell id="O9PJK0Ftn6C582rbbvPH-311" value="" style="endArrow=none;html=1;rounded=0;strokeWidth=3;strokeColor=#007FFF;entryX=1;entryY=0.5;entryDx=0;entryDy=0;exitX=0;exitY=0.5;exitDx=0;exitDy=0;" parent="1" source="O9PJK0Ftn6C582rbbvPH-161" target="O9PJK0Ftn6C582rbbvPH-158" edge="1">
          <mxGeometry width="50" height="50" relative="1" as="geometry">
            <mxPoint x="300" y="226.02" as="sourcePoint" />
            <mxPoint x="287" y="226.02" as="targetPoint" />
          </mxGeometry>
        </mxCell>
        <mxCell id="O9PJK0Ftn6C582rbbvPH-312" value="" style="endArrow=none;html=1;rounded=0;strokeWidth=3;strokeColor=#007FFF;entryX=1;entryY=0.5;entryDx=0;entryDy=0;exitX=0.902;exitY=1;exitDx=0;exitDy=0;exitPerimeter=0;" parent="1" source="O9PJK0Ftn6C582rbbvPH-160" target="O9PJK0Ftn6C582rbbvPH-161" edge="1">
          <mxGeometry width="50" height="50" relative="1" as="geometry">
            <mxPoint x="482" y="232.25" as="sourcePoint" />
            <mxPoint x="460" y="232.25" as="targetPoint" />
          </mxGeometry>
        </mxCell>
        <mxCell id="O9PJK0Ftn6C582rbbvPH-313" value="" style="endArrow=none;html=1;rounded=0;strokeWidth=3;strokeColor=#007FFF;entryX=0.75;entryY=1;entryDx=0;entryDy=0;exitX=0.203;exitY=0.002;exitDx=0;exitDy=0;exitPerimeter=0;" parent="1" source="O9PJK0Ftn6C582rbbvPH-163" target="O9PJK0Ftn6C582rbbvPH-161" edge="1">
          <mxGeometry width="50" height="50" relative="1" as="geometry">
            <mxPoint x="450" y="247.19" as="sourcePoint" />
            <mxPoint x="431" y="247.19" as="targetPoint" />
          </mxGeometry>
        </mxCell>
        <mxCell id="O9PJK0Ftn6C582rbbvPH-314" value="" style="endArrow=none;html=1;rounded=0;strokeWidth=3;strokeColor=#007FFF;exitX=0.492;exitY=0.002;exitDx=0;exitDy=0;exitPerimeter=0;entryX=0.75;entryY=1;entryDx=0;entryDy=0;" parent="1" source="O9PJK0Ftn6C582rbbvPH-194" target="O9PJK0Ftn6C582rbbvPH-163" edge="1">
          <mxGeometry width="50" height="50" relative="1" as="geometry">
            <mxPoint x="475.58000000000004" y="310.13" as="sourcePoint" />
            <mxPoint x="475.6625" y="304.75" as="targetPoint" />
          </mxGeometry>
        </mxCell>
        <mxCell id="O9PJK0Ftn6C582rbbvPH-315" value="" style="endArrow=none;html=1;rounded=0;strokeWidth=3;strokeColor=#007FFF;exitX=0.147;exitY=1.005;exitDx=0;exitDy=0;exitPerimeter=0;entryX=1;entryY=0.5;entryDx=0;entryDy=0;" parent="1" source="O9PJK0Ftn6C582rbbvPH-160" target="O9PJK0Ftn6C582rbbvPH-165" edge="1">
          <mxGeometry width="50" height="50" relative="1" as="geometry">
            <mxPoint x="472.2" y="113.97999999999999" as="sourcePoint" />
            <mxPoint x="467.795" y="104.27000000000001" as="targetPoint" />
          </mxGeometry>
        </mxCell>
        <mxCell id="O9PJK0Ftn6C582rbbvPH-316" value="" style="endArrow=none;html=1;rounded=0;strokeWidth=3;strokeColor=#007FFF;exitX=0;exitY=0.5;exitDx=0;exitDy=0;entryX=0.2;entryY=-0.009;entryDx=0;entryDy=0;entryPerimeter=0;" parent="1" source="O9PJK0Ftn6C582rbbvPH-185" target="O9PJK0Ftn6C582rbbvPH-160" edge="1">
          <mxGeometry width="50" height="50" relative="1" as="geometry">
            <mxPoint x="534" y="113" as="sourcePoint" />
            <mxPoint x="515" y="113" as="targetPoint" />
          </mxGeometry>
        </mxCell>
        <mxCell id="O9PJK0Ftn6C582rbbvPH-317" value="" style="endArrow=none;html=1;rounded=0;strokeWidth=3;strokeColor=#557065;entryX=0.5;entryY=1;entryDx=0;entryDy=0;opacity=80;exitX=0.995;exitY=0.263;exitDx=0;exitDy=0;exitPerimeter=0;" parent="1" source="O9PJK0Ftn6C582rbbvPH-140" target="O9PJK0Ftn6C582rbbvPH-141" edge="1">
          <mxGeometry width="50" height="50" relative="1" as="geometry">
            <mxPoint x="1287" y="600.84" as="sourcePoint" />
            <mxPoint x="1314.902" y="581.6700000000001" as="targetPoint" />
          </mxGeometry>
        </mxCell>
        <mxCell id="O9PJK0Ftn6C582rbbvPH-318" value="" style="endArrow=none;html=1;rounded=0;strokeWidth=3;strokeColor=#557065;entryX=0.727;entryY=-0.001;entryDx=0;entryDy=0;opacity=80;exitX=0.25;exitY=1;exitDx=0;exitDy=0;entryPerimeter=0;" parent="1" source="O9PJK0Ftn6C582rbbvPH-143" target="O9PJK0Ftn6C582rbbvPH-140" edge="1">
          <mxGeometry width="50" height="50" relative="1" as="geometry">
            <mxPoint x="1277" y="549.33" as="sourcePoint" />
            <mxPoint x="1297" y="549.33" as="targetPoint" />
          </mxGeometry>
        </mxCell>
        <mxCell id="O9PJK0Ftn6C582rbbvPH-319" value="" style="endArrow=none;html=1;rounded=0;strokeWidth=3;strokeColor=#557065;entryX=0.5;entryY=1;entryDx=0;entryDy=0;opacity=80;" parent="1" target="O9PJK0Ftn6C582rbbvPH-142" edge="1">
          <mxGeometry width="50" height="50" relative="1" as="geometry">
            <mxPoint x="1395" y="555" as="sourcePoint" />
            <mxPoint x="1361.25" y="546" as="targetPoint" />
          </mxGeometry>
        </mxCell>
        <mxCell id="O9PJK0Ftn6C582rbbvPH-320" value="" style="endArrow=none;html=1;rounded=0;strokeWidth=3;strokeColor=#557065;opacity=80;exitX=0.75;exitY=1;exitDx=0;exitDy=0;entryX=0.156;entryY=-0.007;entryDx=0;entryDy=0;entryPerimeter=0;" parent="1" source="O9PJK0Ftn6C582rbbvPH-144" target="O9PJK0Ftn6C582rbbvPH-143" edge="1">
          <mxGeometry width="50" height="50" relative="1" as="geometry">
            <mxPoint x="1272.5" y="485" as="sourcePoint" />
            <mxPoint x="1307.5" y="541" as="targetPoint" />
          </mxGeometry>
        </mxCell>
        <mxCell id="O9PJK0Ftn6C582rbbvPH-321" value="" style="endArrow=none;html=1;rounded=0;strokeWidth=3;strokeColor=#557065;entryX=0.75;entryY=1;entryDx=0;entryDy=0;opacity=80;exitX=0.347;exitY=0.001;exitDx=0;exitDy=0;exitPerimeter=0;" parent="1" source="O9PJK0Ftn6C582rbbvPH-142" target="O9PJK0Ftn6C582rbbvPH-146" edge="1">
          <mxGeometry width="50" height="50" relative="1" as="geometry">
            <mxPoint x="1374.82" y="455" as="sourcePoint" />
            <mxPoint x="1374.82" y="440" as="targetPoint" />
          </mxGeometry>
        </mxCell>
        <mxCell id="O9PJK0Ftn6C582rbbvPH-322" value="" style="endArrow=none;html=1;rounded=0;strokeWidth=3;strokeColor=#557065;entryX=0;entryY=0.5;entryDx=0;entryDy=0;opacity=80;exitX=1;exitY=0.675;exitDx=0;exitDy=0;exitPerimeter=0;" parent="1" source="O9PJK0Ftn6C582rbbvPH-145" target="O9PJK0Ftn6C582rbbvPH-146" edge="1">
          <mxGeometry width="50" height="50" relative="1" as="geometry">
            <mxPoint x="1349" y="432.5" as="sourcePoint" />
            <mxPoint x="1350" y="425.5" as="targetPoint" />
          </mxGeometry>
        </mxCell>
        <mxCell id="O9PJK0Ftn6C582rbbvPH-323" value="" style="endArrow=none;html=1;rounded=0;strokeWidth=3;strokeColor=#557065;entryX=0;entryY=0.75;entryDx=0;entryDy=0;opacity=80;exitX=1;exitY=0.25;exitDx=0;exitDy=0;" parent="1" source="O9PJK0Ftn6C582rbbvPH-144" target="O9PJK0Ftn6C582rbbvPH-145" edge="1">
          <mxGeometry width="50" height="50" relative="1" as="geometry">
            <mxPoint x="1276.9999999999998" y="420.3" as="sourcePoint" />
            <mxPoint x="1298.75" y="419.7" as="targetPoint" />
          </mxGeometry>
        </mxCell>
        <mxCell id="O9PJK0Ftn6C582rbbvPH-324" value="" style="endArrow=none;html=1;rounded=0;strokeWidth=3;strokeColor=#557065;opacity=80;exitX=1;exitY=0.35;exitDx=0;exitDy=0;entryX=0.5;entryY=0;entryDx=0;entryDy=0;exitPerimeter=0;" parent="1" source="O9PJK0Ftn6C582rbbvPH-149" target="O9PJK0Ftn6C582rbbvPH-145" edge="1">
          <mxGeometry width="50" height="50" relative="1" as="geometry">
            <mxPoint x="1305" y="344.92" as="sourcePoint" />
            <mxPoint x="1314" y="347" as="targetPoint" />
          </mxGeometry>
        </mxCell>
        <mxCell id="O9PJK0Ftn6C582rbbvPH-325" value="" style="endArrow=none;html=1;rounded=0;strokeWidth=3;strokeColor=#557065;opacity=80;exitX=0.926;exitY=1.003;exitDx=0;exitDy=0;entryX=0.25;entryY=0;entryDx=0;entryDy=0;exitPerimeter=0;" parent="1" source="O9PJK0Ftn6C582rbbvPH-150" target="O9PJK0Ftn6C582rbbvPH-149" edge="1">
          <mxGeometry width="50" height="50" relative="1" as="geometry">
            <mxPoint x="1349.72" y="299.63" as="sourcePoint" />
            <mxPoint x="1349.72" y="312.63" as="targetPoint" />
          </mxGeometry>
        </mxCell>
        <mxCell id="O9PJK0Ftn6C582rbbvPH-326" value="" style="endArrow=none;html=1;rounded=0;strokeWidth=3;strokeColor=#557065;opacity=80;entryX=0;entryY=0.5;entryDx=0;entryDy=0;exitX=0.311;exitY=1.001;exitDx=0;exitDy=0;exitPerimeter=0;" parent="1" source="O9PJK0Ftn6C582rbbvPH-150" target="O9PJK0Ftn6C582rbbvPH-152" edge="1">
          <mxGeometry width="50" height="50" relative="1" as="geometry">
            <mxPoint x="1360" y="254.25" as="sourcePoint" />
            <mxPoint x="1341" y="255.25" as="targetPoint" />
          </mxGeometry>
        </mxCell>
        <mxCell id="O9PJK0Ftn6C582rbbvPH-327" value="" style="endArrow=none;html=1;rounded=0;strokeWidth=3;strokeColor=#557065;opacity=80;exitX=1;exitY=0.558;exitDx=0;exitDy=0;entryX=0;entryY=0.5;entryDx=0;entryDy=0;exitPerimeter=0;" parent="1" source="O9PJK0Ftn6C582rbbvPH-152" target="O9PJK0Ftn6C582rbbvPH-151" edge="1">
          <mxGeometry width="50" height="50" relative="1" as="geometry">
            <mxPoint x="1272.5" y="256.25" as="sourcePoint" />
            <mxPoint x="1253.5" y="257.25" as="targetPoint" />
          </mxGeometry>
        </mxCell>
        <mxCell id="O9PJK0Ftn6C582rbbvPH-328" value="" style="endArrow=none;html=1;rounded=0;strokeWidth=3;strokeColor=#36393D;entryX=1;entryY=0.5;entryDx=0;entryDy=0;exitX=1.002;exitY=0.646;exitDx=0;exitDy=0;exitPerimeter=0;" parent="1" source="O9PJK0Ftn6C582rbbvPH-177" target="O9PJK0Ftn6C582rbbvPH-185" edge="1">
          <mxGeometry width="50" height="50" relative="1" as="geometry">
            <mxPoint x="638" y="116.13" as="sourcePoint" />
            <mxPoint x="630" y="115.13" as="targetPoint" />
          </mxGeometry>
        </mxCell>
        <mxCell id="O9PJK0Ftn6C582rbbvPH-329" value="" style="endArrow=none;html=1;rounded=0;strokeWidth=3;strokeColor=#36393D;entryX=0.208;entryY=1.004;entryDx=0;entryDy=0;exitX=0.75;exitY=0;exitDx=0;exitDy=0;entryPerimeter=0;" parent="1" source="O9PJK0Ftn6C582rbbvPH-185" target="O9PJK0Ftn6C582rbbvPH-168" edge="1">
          <mxGeometry width="50" height="50" relative="1" as="geometry">
            <mxPoint x="640" y="94" as="sourcePoint" />
            <mxPoint x="620" y="94" as="targetPoint" />
          </mxGeometry>
        </mxCell>
        <mxCell id="O9PJK0Ftn6C582rbbvPH-330" value="" style="endArrow=none;html=1;rounded=0;strokeWidth=3;strokeColor=#36393D;exitX=0.25;exitY=1;exitDx=0;exitDy=0;entryX=0.001;entryY=0.602;entryDx=0;entryDy=0;entryPerimeter=0;" parent="1" source="O9PJK0Ftn6C582rbbvPH-176" target="O9PJK0Ftn6C582rbbvPH-177" edge="1">
          <mxGeometry width="50" height="50" relative="1" as="geometry">
            <mxPoint x="745" y="102.53" as="sourcePoint" />
            <mxPoint x="690" y="88.0016981132076" as="targetPoint" />
          </mxGeometry>
        </mxCell>
        <mxCell id="O9PJK0Ftn6C582rbbvPH-331" value="" style="endArrow=none;html=1;rounded=0;strokeWidth=3;strokeColor=#36393D;exitX=0;exitY=0.5;exitDx=0;exitDy=0;entryX=0.363;entryY=-0.004;entryDx=0;entryDy=0;entryPerimeter=0;" parent="1" source="O9PJK0Ftn6C582rbbvPH-173" target="O9PJK0Ftn6C582rbbvPH-176" edge="1">
          <mxGeometry width="50" height="50" relative="1" as="geometry">
            <mxPoint x="796" y="130.25" as="sourcePoint" />
            <mxPoint x="785" y="133" as="targetPoint" />
          </mxGeometry>
        </mxCell>
        <mxCell id="O9PJK0Ftn6C582rbbvPH-332" value="" style="endArrow=none;html=1;rounded=0;strokeWidth=3;strokeColor=#36393D;exitX=1;exitY=0.5;exitDx=0;exitDy=0;entryX=0.787;entryY=0.993;entryDx=0;entryDy=0;entryPerimeter=0;" parent="1" source="O9PJK0Ftn6C582rbbvPH-176" target="O9PJK0Ftn6C582rbbvPH-180" edge="1">
          <mxGeometry width="50" height="50" relative="1" as="geometry">
            <mxPoint x="810" y="144" as="sourcePoint" />
            <mxPoint x="795" y="144" as="targetPoint" />
          </mxGeometry>
        </mxCell>
        <mxCell id="O9PJK0Ftn6C582rbbvPH-333" value="" style="endArrow=none;html=1;rounded=0;strokeWidth=3;strokeColor=#36393D;exitX=1.001;exitY=0.793;exitDx=0;exitDy=0;entryX=0;entryY=0.5;entryDx=0;entryDy=0;exitPerimeter=0;" parent="1" source="O9PJK0Ftn6C582rbbvPH-179" target="O9PJK0Ftn6C582rbbvPH-181" edge="1">
          <mxGeometry width="50" height="50" relative="1" as="geometry">
            <mxPoint x="870" y="210" as="sourcePoint" />
            <mxPoint x="870" y="223" as="targetPoint" />
          </mxGeometry>
        </mxCell>
        <mxCell id="O9PJK0Ftn6C582rbbvPH-334" value="" style="endArrow=none;html=1;rounded=0;strokeWidth=3;strokeColor=#36393D;exitX=0;exitY=0.5;exitDx=0;exitDy=0;entryX=0.304;entryY=1.012;entryDx=0;entryDy=0;entryPerimeter=0;" parent="1" source="O9PJK0Ftn6C582rbbvPH-180" target="O9PJK0Ftn6C582rbbvPH-181" edge="1">
          <mxGeometry width="50" height="50" relative="1" as="geometry">
            <mxPoint x="840" y="232.25" as="sourcePoint" />
            <mxPoint x="841" y="247.25" as="targetPoint" />
          </mxGeometry>
        </mxCell>
        <mxCell id="O9PJK0Ftn6C582rbbvPH-335" value="" style="endArrow=none;html=1;rounded=0;strokeWidth=3;strokeColor=#36393D;exitX=0.105;exitY=1.002;exitDx=0;exitDy=0;exitPerimeter=0;entryX=1;entryY=0.75;entryDx=0;entryDy=0;" parent="1" source="O9PJK0Ftn6C582rbbvPH-178" target="O9PJK0Ftn6C582rbbvPH-173" edge="1">
          <mxGeometry width="50" height="50" relative="1" as="geometry">
            <mxPoint x="843" y="257" as="sourcePoint" />
            <mxPoint x="860" y="257" as="targetPoint" />
          </mxGeometry>
        </mxCell>
        <mxCell id="O9PJK0Ftn6C582rbbvPH-336" value="" style="endArrow=none;html=1;rounded=0;strokeWidth=3;strokeColor=#36393D;entryX=0.5;entryY=0;entryDx=0;entryDy=0;exitX=0.456;exitY=0.995;exitDx=0;exitDy=0;exitPerimeter=0;" parent="1" source="O9PJK0Ftn6C582rbbvPH-178" target="O9PJK0Ftn6C582rbbvPH-179" edge="1">
          <mxGeometry width="50" height="50" relative="1" as="geometry">
            <mxPoint x="930" y="185" as="sourcePoint" />
            <mxPoint x="938.88" y="147" as="targetPoint" />
          </mxGeometry>
        </mxCell>
        <mxCell id="O9PJK0Ftn6C582rbbvPH-337" value="" style="endArrow=none;html=1;rounded=0;strokeWidth=3;strokeColor=#36393D;entryX=0.784;entryY=0;entryDx=0;entryDy=0;exitX=0;exitY=0.5;exitDx=0;exitDy=0;entryPerimeter=0;" parent="1" source="O9PJK0Ftn6C582rbbvPH-195" target="O9PJK0Ftn6C582rbbvPH-180" edge="1">
          <mxGeometry width="50" height="50" relative="1" as="geometry">
            <mxPoint x="940" y="195" as="sourcePoint" />
            <mxPoint x="925" y="195" as="targetPoint" />
          </mxGeometry>
        </mxCell>
        <mxCell id="O9PJK0Ftn6C582rbbvPH-338" value="" style="endArrow=none;html=1;rounded=0;strokeWidth=3;strokeColor=#36393D;entryX=-0.001;entryY=0.381;entryDx=0;entryDy=0;entryPerimeter=0;exitX=0.94;exitY=-0.002;exitDx=0;exitDy=0;exitPerimeter=0;" parent="1" source="O9PJK0Ftn6C582rbbvPH-178" target="O9PJK0Ftn6C582rbbvPH-175" edge="1">
          <mxGeometry width="50" height="50" relative="1" as="geometry">
            <mxPoint x="965" y="243" as="sourcePoint" />
            <mxPoint x="980" y="221.88" as="targetPoint" />
          </mxGeometry>
        </mxCell>
        <mxCell id="O9PJK0Ftn6C582rbbvPH-339" value="" style="endArrow=none;html=1;rounded=0;strokeWidth=3;strokeColor=#36393D;entryX=-0.002;entryY=0.766;entryDx=0;entryDy=0;entryPerimeter=0;exitX=1;exitY=0.093;exitDx=0;exitDy=0;exitPerimeter=0;" parent="1" source="O9PJK0Ftn6C582rbbvPH-175" target="O9PJK0Ftn6C582rbbvPH-182" edge="1">
          <mxGeometry width="50" height="50" relative="1" as="geometry">
            <mxPoint x="1021" y="214" as="sourcePoint" />
            <mxPoint x="1034" y="214" as="targetPoint" />
          </mxGeometry>
        </mxCell>
        <mxCell id="O9PJK0Ftn6C582rbbvPH-340" value="" style="endArrow=none;html=1;rounded=0;strokeWidth=3;strokeColor=#36393D;exitX=0.486;exitY=1.003;exitDx=0;exitDy=0;exitPerimeter=0;entryX=0.485;entryY=-0.001;entryDx=0;entryDy=0;entryPerimeter=0;" parent="1" source="O9PJK0Ftn6C582rbbvPH-186" target="O9PJK0Ftn6C582rbbvPH-182" edge="1">
          <mxGeometry width="50" height="50" relative="1" as="geometry">
            <mxPoint x="1030" y="224" as="sourcePoint" />
            <mxPoint x="1073" y="187" as="targetPoint" />
          </mxGeometry>
        </mxCell>
        <mxCell id="O9PJK0Ftn6C582rbbvPH-341" value="" style="endArrow=none;html=1;rounded=0;strokeWidth=3;strokeColor=#36393D;exitX=0.75;exitY=1;exitDx=0;exitDy=0;entryX=0.217;entryY=0.011;entryDx=0;entryDy=0;entryPerimeter=0;" parent="1" source="O9PJK0Ftn6C582rbbvPH-182" target="O9PJK0Ftn6C582rbbvPH-174" edge="1">
          <mxGeometry width="50" height="50" relative="1" as="geometry">
            <mxPoint x="1030" y="224" as="sourcePoint" />
            <mxPoint x="1044" y="224" as="targetPoint" />
          </mxGeometry>
        </mxCell>
        <mxCell id="O9PJK0Ftn6C582rbbvPH-342" value="" style="endArrow=none;html=1;rounded=0;strokeWidth=3;strokeColor=#36393D;exitX=0;exitY=0.5;exitDx=0;exitDy=0;entryX=0.669;entryY=1.007;entryDx=0;entryDy=0;entryPerimeter=0;" parent="1" source="O9PJK0Ftn6C582rbbvPH-183" target="O9PJK0Ftn6C582rbbvPH-174" edge="1">
          <mxGeometry width="50" height="50" relative="1" as="geometry">
            <mxPoint x="1104" y="232" as="sourcePoint" />
            <mxPoint x="1104" y="245" as="targetPoint" />
          </mxGeometry>
        </mxCell>
        <mxCell id="O9PJK0Ftn6C582rbbvPH-343" value="" style="endArrow=none;html=1;rounded=0;strokeWidth=3;strokeColor=#36393D;exitX=1;exitY=0.5;exitDx=0;exitDy=0;entryX=1;entryY=0.5;entryDx=0;entryDy=0;" parent="1" source="O9PJK0Ftn6C582rbbvPH-174" target="O9PJK0Ftn6C582rbbvPH-151" edge="1">
          <mxGeometry width="50" height="50" relative="1" as="geometry">
            <mxPoint x="1154" y="291" as="sourcePoint" />
            <mxPoint x="1154" y="280" as="targetPoint" />
          </mxGeometry>
        </mxCell>
        <mxCell id="O9PJK0Ftn6C582rbbvPH-344" value="" style="endArrow=none;html=1;rounded=0;strokeWidth=3;strokeColor=default;entryX=0.5;entryY=1;entryDx=0;entryDy=0;opacity=40;exitX=0.5;exitY=0;exitDx=0;exitDy=0;" parent="1" source="O9PJK0Ftn6C582rbbvPH-238" target="O9PJK0Ftn6C582rbbvPH-239" edge="1">
          <mxGeometry width="50" height="50" relative="1" as="geometry">
            <mxPoint x="1093" y="484" as="sourcePoint" />
            <mxPoint x="1080" y="484" as="targetPoint" />
          </mxGeometry>
        </mxCell>
        <mxCell id="O9PJK0Ftn6C582rbbvPH-345" value="" style="endArrow=none;html=1;rounded=0;strokeWidth=3;strokeColor=default;entryX=1;entryY=0.75;entryDx=0;entryDy=0;opacity=40;exitX=0.024;exitY=0.987;exitDx=0;exitDy=0;exitPerimeter=0;" parent="1" source="O9PJK0Ftn6C582rbbvPH-90" target="O9PJK0Ftn6C582rbbvPH-239" edge="1">
          <mxGeometry width="50" height="50" relative="1" as="geometry">
            <mxPoint x="1042" y="547" as="sourcePoint" />
            <mxPoint x="1042" y="542" as="targetPoint" />
          </mxGeometry>
        </mxCell>
        <mxCell id="O9PJK0Ftn6C582rbbvPH-346" value="" style="endArrow=none;html=1;rounded=0;strokeWidth=3;strokeColor=default;opacity=40;exitX=0.999;exitY=0.924;exitDx=0;exitDy=0;exitPerimeter=0;entryX=0;entryY=0.5;entryDx=0;entryDy=0;" parent="1" source="O9PJK0Ftn6C582rbbvPH-241" target="O9PJK0Ftn6C582rbbvPH-243" edge="1">
          <mxGeometry width="50" height="50" relative="1" as="geometry">
            <mxPoint x="1080" y="537" as="sourcePoint" />
            <mxPoint x="1071" y="537" as="targetPoint" />
          </mxGeometry>
        </mxCell>
        <mxCell id="O9PJK0Ftn6C582rbbvPH-347" value="" style="endArrow=none;html=1;rounded=0;strokeWidth=3;strokeColor=default;opacity=40;exitX=1;exitY=0.75;exitDx=0;exitDy=0;entryX=-0.012;entryY=0.932;entryDx=0;entryDy=0;entryPerimeter=0;" parent="1" source="O9PJK0Ftn6C582rbbvPH-244" target="O9PJK0Ftn6C582rbbvPH-243" edge="1">
          <mxGeometry width="50" height="50" relative="1" as="geometry">
            <mxPoint x="1108" y="586" as="sourcePoint" />
            <mxPoint x="1116" y="586" as="targetPoint" />
          </mxGeometry>
        </mxCell>
        <mxCell id="O9PJK0Ftn6C582rbbvPH-348" value="" style="endArrow=none;html=1;rounded=0;strokeWidth=3;strokeColor=default;opacity=40;entryX=0.985;entryY=0.11;entryDx=0;entryDy=0;entryPerimeter=0;exitX=0;exitY=0.75;exitDx=0;exitDy=0;" parent="1" source="O9PJK0Ftn6C582rbbvPH-239" target="O9PJK0Ftn6C582rbbvPH-240" edge="1">
          <mxGeometry width="50" height="50" relative="1" as="geometry">
            <mxPoint x="1002" y="528" as="sourcePoint" />
            <mxPoint x="1071" y="537" as="targetPoint" />
          </mxGeometry>
        </mxCell>
        <mxCell id="O9PJK0Ftn6C582rbbvPH-349" value="" style="endArrow=none;html=1;rounded=0;strokeWidth=3;strokeColor=default;opacity=40;entryX=1;entryY=0.5;entryDx=0;entryDy=0;exitX=-0.001;exitY=0.921;exitDx=0;exitDy=0;exitPerimeter=0;" parent="1" source="O9PJK0Ftn6C582rbbvPH-240" target="O9PJK0Ftn6C582rbbvPH-242" edge="1">
          <mxGeometry width="50" height="50" relative="1" as="geometry">
            <mxPoint x="974" y="573" as="sourcePoint" />
            <mxPoint x="965" y="572" as="targetPoint" />
          </mxGeometry>
        </mxCell>
        <mxCell id="O9PJK0Ftn6C582rbbvPH-350" value="" style="endArrow=none;html=1;rounded=0;strokeWidth=3;strokeColor=default;opacity=40;exitX=0;exitY=0.75;exitDx=0;exitDy=0;entryX=1.005;entryY=0.931;entryDx=0;entryDy=0;entryPerimeter=0;" parent="1" source="O9PJK0Ftn6C582rbbvPH-245" target="O9PJK0Ftn6C582rbbvPH-242" edge="1">
          <mxGeometry width="50" height="50" relative="1" as="geometry">
            <mxPoint x="976" y="584" as="sourcePoint" />
            <mxPoint x="958" y="600" as="targetPoint" />
          </mxGeometry>
        </mxCell>
        <mxCell id="O9PJK0Ftn6C582rbbvPH-351" value="" style="rounded=0;whiteSpace=wrap;html=1;fillColor=#ffff88;strokeColor=#6C727A;opacity=80;shadow=1;" parent="1" vertex="1">
          <mxGeometry x="985" y="414.5" width="66.25" height="35" as="geometry" />
        </mxCell>
        <mxCell id="O9PJK0Ftn6C582rbbvPH-352" value="" style="endArrow=none;html=1;rounded=0;strokeWidth=3;strokeColor=#6C727A;opacity=80;exitX=1;exitY=0.5;exitDx=0;exitDy=0;entryX=1;entryY=0.5;entryDx=0;entryDy=0;" parent="1" source="O9PJK0Ftn6C582rbbvPH-351" target="O9PJK0Ftn6C582rbbvPH-203" edge="1">
          <mxGeometry width="50" height="50" relative="1" as="geometry">
            <mxPoint x="1088" y="418" as="sourcePoint" />
            <mxPoint x="1088" y="427" as="targetPoint" />
          </mxGeometry>
        </mxCell>
        <mxCell id="O9PJK0Ftn6C582rbbvPH-353" value="" style="rounded=0;whiteSpace=wrap;html=1;fillColor=#cdeb8b;strokeColor=#6A8C7E;opacity=80;direction=south;gradientColor=#C3E8C4;gradientDirection=east;" parent="1" vertex="1">
          <mxGeometry x="1300" y="632.5" width="35.63" height="51.5" as="geometry" />
        </mxCell>
        <mxCell id="O9PJK0Ftn6C582rbbvPH-354" value="" style="endArrow=none;html=1;rounded=0;strokeWidth=3;strokeColor=#82B366;entryX=1;entryY=0.5;entryDx=0;entryDy=0;exitX=0.54;exitY=0.005;exitDx=0;exitDy=0;exitPerimeter=0;" parent="1" source="O9PJK0Ftn6C582rbbvPH-134" target="O9PJK0Ftn6C582rbbvPH-353" edge="1">
          <mxGeometry width="50" height="50" relative="1" as="geometry">
            <mxPoint x="1323.5" y="686.5" as="sourcePoint" />
            <mxPoint x="1306.5" y="686.5" as="targetPoint" />
          </mxGeometry>
        </mxCell>
        <mxCell id="O9PJK0Ftn6C582rbbvPH-355" value="" style="endArrow=none;html=1;rounded=0;strokeWidth=3;strokeColor=#557065;entryX=0.25;entryY=1;entryDx=0;entryDy=0;opacity=80;exitX=1.003;exitY=0.916;exitDx=0;exitDy=0;exitPerimeter=0;" parent="1" source="O9PJK0Ftn6C582rbbvPH-140" target="O9PJK0Ftn6C582rbbvPH-353" edge="1">
          <mxGeometry width="50" height="50" relative="1" as="geometry">
            <mxPoint x="1285" y="644.71" as="sourcePoint" />
            <mxPoint x="1305" y="644.71" as="targetPoint" />
          </mxGeometry>
        </mxCell>
        <mxCell id="O9PJK0Ftn6C582rbbvPH-356" value="" style="endArrow=classicThin;html=1;rounded=0;strokeColor=#6C727A;strokeWidth=2;opacity=30;exitX=1;exitY=0.5;exitDx=0;exitDy=0;entryX=0.414;entryY=-0.007;entryDx=0;entryDy=0;entryPerimeter=0;endFill=1;jumpSize=3;" parent="1" source="O9PJK0Ftn6C582rbbvPH-202" target="O9PJK0Ftn6C582rbbvPH-131" edge="1">
          <mxGeometry width="50" height="50" relative="1" as="geometry">
            <mxPoint x="908" y="700" as="sourcePoint" />
            <mxPoint x="958" y="650" as="targetPoint" />
          </mxGeometry>
        </mxCell>
        <mxCell id="O9PJK0Ftn6C582rbbvPH-357" value="" style="endArrow=classicThin;html=1;rounded=0;strokeColor=#6C727A;strokeWidth=2;opacity=30;exitX=1;exitY=0.5;exitDx=0;exitDy=0;entryX=0;entryY=0.5;entryDx=0;entryDy=0;endFill=1;jumpSize=3;" parent="1" source="O9PJK0Ftn6C582rbbvPH-196" target="O9PJK0Ftn6C582rbbvPH-204" edge="1">
          <mxGeometry width="50" height="50" relative="1" as="geometry">
            <mxPoint x="1097.62" y="463" as="sourcePoint" />
            <mxPoint x="1097.62" y="495" as="targetPoint" />
          </mxGeometry>
        </mxCell>
        <mxCell id="O9PJK0Ftn6C582rbbvPH-358" value="" style="rounded=0;whiteSpace=wrap;html=1;fillColor=#E0F0FF;strokeColor=#5880C4;textOpacity=60;" parent="1" vertex="1">
          <mxGeometry x="581.75" y="234.75" width="51.5" height="61.75" as="geometry" />
        </mxCell>
        <mxCell id="O9PJK0Ftn6C582rbbvPH-359" value="" style="rounded=0;whiteSpace=wrap;html=1;fillColor=#E0F0FF;strokeColor=#5880C4;textOpacity=60;" parent="1" vertex="1">
          <mxGeometry x="661.25" y="197.5" width="62" height="61.75" as="geometry" />
        </mxCell>
        <mxCell id="O9PJK0Ftn6C582rbbvPH-360" value="" style="rounded=0;whiteSpace=wrap;html=1;fillColor=#E0F0FF;strokeColor=#5880C4;textOpacity=60;" parent="1" vertex="1">
          <mxGeometry x="595" y="197.25" width="57.5" height="28.5" as="geometry" />
        </mxCell>
        <mxCell id="O9PJK0Ftn6C582rbbvPH-362" value="" style="rounded=0;whiteSpace=wrap;html=1;fillColor=#D4E6FF;strokeColor=#5880C4;textOpacity=60;shadow=1;" parent="1" vertex="1">
          <mxGeometry x="661.25" y="268" width="62.25" height="28.5" as="geometry" />
        </mxCell>
        <mxCell id="O9PJK0Ftn6C582rbbvPH-363" value="" style="endArrow=none;html=1;rounded=0;strokeWidth=3;strokeColor=#5880C4;exitX=0.5;exitY=1;exitDx=0;exitDy=0;entryX=0.5;entryY=0;entryDx=0;entryDy=0;" parent="1" source="O9PJK0Ftn6C582rbbvPH-359" target="O9PJK0Ftn6C582rbbvPH-362" edge="1">
          <mxGeometry width="50" height="50" relative="1" as="geometry">
            <mxPoint x="644.85" y="252" as="sourcePoint" />
            <mxPoint x="644.85" y="265" as="targetPoint" />
          </mxGeometry>
        </mxCell>
        <mxCell id="O9PJK0Ftn6C582rbbvPH-364" value="" style="endArrow=none;html=1;rounded=0;strokeWidth=3;strokeColor=#5880C4;exitX=0.5;exitY=0;exitDx=0;exitDy=0;entryX=0.215;entryY=1.003;entryDx=0;entryDy=0;entryPerimeter=0;" parent="1" source="O9PJK0Ftn6C582rbbvPH-358" target="O9PJK0Ftn6C582rbbvPH-360" edge="1">
          <mxGeometry width="50" height="50" relative="1" as="geometry">
            <mxPoint x="702" y="269" as="sourcePoint" />
            <mxPoint x="702" y="278" as="targetPoint" />
          </mxGeometry>
        </mxCell>
        <mxCell id="O9PJK0Ftn6C582rbbvPH-365" value="" style="endArrow=none;html=1;rounded=0;strokeWidth=3;strokeColor=#5880C4;exitX=-0.002;exitY=0.228;exitDx=0;exitDy=0;entryX=1;entryY=0.5;entryDx=0;entryDy=0;exitPerimeter=0;" parent="1" source="O9PJK0Ftn6C582rbbvPH-359" target="O9PJK0Ftn6C582rbbvPH-360" edge="1">
          <mxGeometry width="50" height="50" relative="1" as="geometry">
            <mxPoint x="656.75" y="220" as="sourcePoint" />
            <mxPoint x="655.75" y="211" as="targetPoint" />
          </mxGeometry>
        </mxCell>
        <mxCell id="O9PJK0Ftn6C582rbbvPH-366" value="" style="endArrow=none;html=1;rounded=0;strokeWidth=3;strokeColor=#5880C4;exitX=0.5;exitY=1;exitDx=0;exitDy=0;entryX=0;entryY=0.5;entryDx=0;entryDy=0;" parent="1" source="O9PJK0Ftn6C582rbbvPH-358" target="O9PJK0Ftn6C582rbbvPH-235" edge="1">
          <mxGeometry width="50" height="50" relative="1" as="geometry">
            <mxPoint x="610" y="310" as="sourcePoint" />
            <mxPoint x="609" y="301" as="targetPoint" />
          </mxGeometry>
        </mxCell>
        <mxCell id="O9PJK0Ftn6C582rbbvPH-367" value="" style="endArrow=none;html=1;rounded=0;strokeWidth=3;strokeColor=default;entryX=0.5;entryY=0;entryDx=0;entryDy=0;opacity=40;exitX=0.547;exitY=1.004;exitDx=0;exitDy=0;exitPerimeter=0;" parent="1" source="O9PJK0Ftn6C582rbbvPH-196" target="O9PJK0Ftn6C582rbbvPH-239" edge="1">
          <mxGeometry width="50" height="50" relative="1" as="geometry">
            <mxPoint x="1082" y="537" as="sourcePoint" />
            <mxPoint x="1071" y="537" as="targetPoint" />
          </mxGeometry>
        </mxCell>
        <mxCell id="9bHgak0so13eSg7wB6iv-1" value="" style="rounded=0;whiteSpace=wrap;html=1;fillColor=#FFE0E6;strokeColor=#FFCCCC;" parent="1" vertex="1">
          <mxGeometry x="456.5" y="465" width="53.5" height="40" as="geometry" />
        </mxCell>
        <mxCell id="O9PJK0Ftn6C582rbbvPH-189" value="Tutorial Room" style="text;html=1;align=center;verticalAlign=middle;whiteSpace=wrap;rounded=0;fontSize=8;fontFamily=Times New Roman;" parent="1" vertex="1">
          <mxGeometry x="453.25" y="456.5" width="60" height="30" as="geometry" />
        </mxCell>
        <mxCell id="9bHgak0so13eSg7wB6iv-2" value="" style="endArrow=none;html=1;rounded=0;entryX=0;entryY=0.5;entryDx=0;entryDy=0;exitX=1;exitY=0.5;exitDx=0;exitDy=0;strokeWidth=3;strokeColor=#FFCCCC;" parent="1" source="9bHgak0so13eSg7wB6iv-1" target="O9PJK0Ftn6C582rbbvPH-23" edge="1">
          <mxGeometry width="50" height="50" relative="1" as="geometry">
            <mxPoint x="550" y="515" as="sourcePoint" />
            <mxPoint x="550" y="535" as="targetPoint" />
          </mxGeometry>
        </mxCell>
        <mxCell id="O9PJK0Ftn6C582rbbvPH-94" value="2" style="text;html=1;align=center;verticalAlign=middle;whiteSpace=wrap;rounded=0;fontSize=6;" parent="1" vertex="1">
          <mxGeometry x="476" y="490" width="10" height="10" as="geometry" />
        </mxCell>
        <mxCell id="O9PJK0Ftn6C582rbbvPH-91" value="" style="triangle;whiteSpace=wrap;html=1;fillColor=none;direction=north;" parent="1" vertex="1">
          <mxGeometry x="476" y="489" width="10" height="10" as="geometry" />
        </mxCell>
        <mxCell id="YnsRmlHI_qMVdLaqhivN-1" value="&lt;font style=&quot;font-size: 10px;&quot;&gt;The Grotto&lt;/font&gt;" style="text;html=1;align=center;verticalAlign=middle;whiteSpace=wrap;rounded=0;fontSize=18;fontFamily=Garamond;" vertex="1" parent="1">
          <mxGeometry x="662.25" y="265" width="58" height="30" as="geometry" />
        </mxCell>
      </root>
    </mxGraphModel>
  </diagram>
</mxfile>
